/* XPM */
static char *ea1682179948[] = {
/* columns rows colors chars-per-pixel */
"64 64 23 1 ",
"  c #F1F3FB",
". c #ABA011",
"X c #B9B03E",
"o c #BDB54B",
"O c #BDB54C",
"+ c #ECEDEC",
"@ c #DFDEC1",
"# c #CAC577",
"$ c #D3CF95",
"% c #E3E4CF",
"& c #B0A620",
"* c #E7E8DD",
"= c #CECA86",
"- c #B5AB2F",
"; c #ECEDED",
": c #CEC986",
"> c #D7D3A2",
", c #E8E8DE",
"< c #D7D3A3",
"1 c #C6C069",
"2 c #E3E3CE",
"3 c #DFDEC0",
"4 c #DBD9B3",
/* pixels */
"                                                                ",
" .............................................................. ",
" .............................................................. ",
" .............................................................. ",
" .............................................................. ",
" .............................................................. ",
" .............................................................. ",
" .............................................................. ",
" .............................................................. ",
" .............................................................. ",
" .............................................................. ",
" .............................................................. ",
" .............................................................. ",
" .............................................................. ",
" .............................................................. ",
" .............................................................. ",
" .............................................................. ",
" .............................................................. ",
" .............................................................. ",
" .............................................................. ",
" .............................................................. ",
" .............................................................. ",
" .............................................................. ",
" .............................................................. ",
" .......................XooO................................... ",
" .......................+   X....O       @..................... ",
" ......................X    #....O       @..................... ",
" ......................$  @ %....&OOOO#  @..................... ",
" ......................* @=  -........O  @..................... ",
" .....................X  #X  #........O  @..................... ",
" .....................$  -.; %....::::>  @..................... ",
" .....................* ,..<  -...       @..................... ",
" ....................X  $..1  #...       @..................... ",
" ....................$  2332  %.......O  @..................... ",
" ....................*         &......O  @..................... ",
" ...................X  ,@@@@,  1......O  @..................... ",
" ...................#  #....X  4.-::::>  @..................... ",
" ...................2  -.....;  &O       @..................... ",
" ..................-  ,......<  1O       @..................... ",
" .............................................................. ",
" .............................................................. ",
" .............................................................. ",
" .............................................................. ",
" .............................................................. ",
" .............................................................. ",
" .............................................................. ",
" .............................................................. ",
" .............................................................. ",
" .............................................................. ",
" .............................................................. ",
" .............................................................. ",
" .............................................................. ",
" .............................................................. ",
" .............................................................. ",
" .............................................................. ",
" .............................................................. ",
" .............................................................. ",
" .............................................................. ",
" .............................................................. ",
" .............................................................. ",
" .............................................................. ",
" .............................................................. ",
" .............................................................. ",
"                                                                "
};
