/* XPM */
static char *no1682179578[] = {
/* columns rows colors chars-per-pixel */
"64 64 26 1 ",
"  c #EEF0FA",
". c #840910",
"X c #9C393C",
"o c #912224",
"O c #8B1719",
"+ c #C38D92",
"@ c #D1ADB4",
"# c #9D3A3C",
"$ c #D1AEB4",
"% c #D7BEC3",
"& c #AA5557",
"* c #C48D93",
"= c #E6DEE8",
"- c #A34749",
"; c #E5DDE7",
": c #D8BEC4",
"> c #B06365",
", c #DECDD6",
"< c #CA9EA4",
"1 c #B77074",
"2 c #972E30",
"3 c #DECDD5",
"4 c #BD7F84",
"5 c #BD7E83",
"6 c #A34648",
"7 c #B06264",
/* pixels */
"                                                                ",
" .............................................................. ",
" .............................................................. ",
" .............................................................. ",
" .............................................................. ",
" .............................................................. ",
" .............................................................. ",
" .............................................................. ",
" .............................................................. ",
" .............................................................. ",
" .............................................................. ",
" .............................................................. ",
" .............................................................. ",
" .............................................................. ",
" .............................................................. ",
" .............................................................. ",
" .............................................................. ",
" .............................................................. ",
" .............................................................. ",
" .............................................................. ",
" .............................................................. ",
" .............................................................. ",
" .............................................................. ",
" .............................................................. ",
" ......................XXXo.................................... ",
" ...................O+     @#.....  $....#   $................. ",
" ..................O%        &....  $....@   $................. ",
" ..................*  =&#-$  ;O...  $...#    $................. ",
" .................O   #....:  >...  $...@  , $................. ",
" .................&  :.....&  $...  $..-  <$ $................. ",
" .................1  1.....2   ...  $..3  o$ $................. ",
" .................4  1......   ...  $.&  *.$ $................. ",
" .................1  1......   ...  *.3  o.$ $................. ",
" .................1  4.....#  =...  1&  *..$ $................. ",
" .................-  :.....>  $...  43  o..$ $................. ",
" .................O=  -...O3  &...  ;  4...$ $................. ",
" ..................1   5673  ,O...    =O...$ $................. ",
" ..................O$       =2....    1....$ $................. ",
" ....................>,   =*o.....   =O....$ $................. ",
" .......................#o..................................... ",
" .............................................................. ",
" .............................................................. ",
" .............................................................. ",
" .............................................................. ",
" .............................................................. ",
" .............................................................. ",
" .............................................................. ",
" .............................................................. ",
" .............................................................. ",
" .............................................................. ",
" .............................................................. ",
" .............................................................. ",
" .............................................................. ",
" .............................................................. ",
" .............................................................. ",
" .............................................................. ",
" .............................................................. ",
" .............................................................. ",
" .............................................................. ",
" .............................................................. ",
" .............................................................. ",
" .............................................................. ",
" .............................................................. ",
"                                                                "
};
