/* XPM */
static char *so1682179765[] = {
/* columns rows colors chars-per-pixel */
"64 64 22 1 ",
"  c #F1F3FB",
". c #4F83C6",
"X c #5A8BCA",
"o c #789FD3",
"O c #6492CD",
"+ c #C8D7EE",
"@ c #B4C8E6",
"# c #E6EBF8",
"$ c #AAC2E4",
"% c #6E98D1",
"& c #D2DEF0",
"* c #82A6D7",
"= c #8CAEDA",
"- c #DCE5F4",
"; c #BFD0EB",
": c #E7EBF8",
"> c #B5C9E7",
", c #A0BBE1",
"< c #DCE4F3",
"1 c #8CADDA",
"2 c #96B5DD",
"3 c #A0BBE0",
/* pixels */
"                                                                ",
" .............................................................. ",
" .............................................................. ",
" .............................................................. ",
" .............................................................. ",
" .............................................................. ",
" .............................................................. ",
" .............................................................. ",
" .............................................................. ",
" .............................................................. ",
" .............................................................. ",
" .............................................................. ",
" .............................................................. ",
" .............................................................. ",
" .............................................................. ",
" .............................................................. ",
" .............................................................. ",
" .............................................................. ",
" .............................................................. ",
" .............................................................. ",
" .............................................................. ",
" .............................................................. ",
" .............................................................. ",
" .............................................................. ",
" .......................XoooX........oooX...................... ",
" .....................O+     @O....@#    $X.................... ",
" ....................%#       #%...&      $.................... ",
" ....................&  &*o=-  &...=;=o=   X................... ",
" ...................*  :X...X:  o.......+  o................... ",
" ...................$  $.....>  ,......X<  %................... ",
" ...................+  *.....=  +.....1#  &.................... ",
" ...................+  o.....o  +...%&   :%.................... ",
" ...................+  o.....o  +..%#   >X..................... ",
" ...................+  =.....2  ;..<  &o....................... ",
" ...................$  >.....>  ,.%  -X........................ ",
" ...................o  #%...%   %.o  +....X%................... ",
" ....................+  #3o$#  +...:  3o1@#,................... ",
" ....................O&       &X...2       ,................... ",
" .....................X$:   -,X.....*-    ;%................... ",
" ........................XoX..........Xo%...................... ",
" .............................................................. ",
" .............................................................. ",
" .............................................................. ",
" .............................................................. ",
" .............................................................. ",
" .............................................................. ",
" .............................................................. ",
" .............................................................. ",
" .............................................................. ",
" .............................................................. ",
" .............................................................. ",
" .............................................................. ",
" .............................................................. ",
" .............................................................. ",
" .............................................................. ",
" .............................................................. ",
" .............................................................. ",
" .............................................................. ",
" .............................................................. ",
" .............................................................. ",
" .............................................................. ",
" .............................................................. ",
" .............................................................. ",
"                                                                "
};
