/* XPM */
static char *we1682179872[] = {
/* columns rows colors chars-per-pixel */
"64 64 20 1 ",
"  c #F1F3FB",
". c #0FA21F",
"X c #48B656",
"o c #C7E4D2",
"O c #1EA82D",
"+ c #9DD4A8",
"@ c #B8DFC5",
"# c #3AB149",
"$ c #8FD09B",
"% c #56BB64",
"& c #80CB8D",
"* c #D5E8DF",
"= c #E2EDED",
"- c #E3EDEE",
"; c #64C172",
": c #2CAD3B",
"> c #ABDAB7",
", c #80CA8D",
"< c #D4E8DF",
"1 c #72C67F",
/* pixels */
"                                                                ",
" .............................................................. ",
" .............................................................. ",
" .............................................................. ",
" .............................................................. ",
" .............................................................. ",
" .............................................................. ",
" .............................................................. ",
" .............................................................. ",
" .............................................................. ",
" .............................................................. ",
" .............................................................. ",
" .............................................................. ",
" .............................................................. ",
" .............................................................. ",
" .............................................................. ",
" .............................................................. ",
" .............................................................. ",
" .............................................................. ",
" .............................................................. ",
" .............................................................. ",
" .............................................................. ",
" .............................................................. ",
" .............................................................. ",
" .............................................................. ",
" .................        X.o  O...X  +....@  #................ ",
" .................        X.$  %...&  *....= -................. ",
" .................XXXXXo  X.;  &...@   :..:  @................. ",
" ......................@  X.:  @...    ;..;  &................. ",
" ......................@  X..* -..X  > +..$  X................. ",
" .................X,,,,<  X..+  :.& *& *..@  .................. ",
" .................&       X..;  %.@ >X  :.  @.................. ",
" .................&       X..:  &.  1O  ;#  &.................. ",
" ......................@  X...* @X  #.o $;  X.................. ",
" ......................@  X...> -1 -..$ @&  ................... ",
" ......................@  X...1  + >..%  @ o................... ",
" .................,,,,,<  X...#    1..O  = $................... ",
" .................        X....-   #...o   %................... ",
" .................        X....>  -....$   O................... ",
" .............................................................. ",
" .............................................................. ",
" .............................................................. ",
" .............................................................. ",
" .............................................................. ",
" .............................................................. ",
" .............................................................. ",
" .............................................................. ",
" .............................................................. ",
" .............................................................. ",
" .............................................................. ",
" .............................................................. ",
" .............................................................. ",
" .............................................................. ",
" .............................................................. ",
" .............................................................. ",
" .............................................................. ",
" .............................................................. ",
" .............................................................. ",
" .............................................................. ",
" .............................................................. ",
" .............................................................. ",
" .............................................................. ",
" .............................................................. ",
"                                                                "
};
