/* XPM */
static char *Y29ydGl6[] = {
/* columns rows colors chars-per-pixel */
"64 64 243 2 ",
"   c #0E0E0D",
".  c #10100F",
"X  c #141514",
"o  c #15161A",
"O  c #17181A",
"+  c #1A1A1C",
"@  c #181817",
"#  c #0F100F",
"$  c #1C1D22",
"%  c #1E1F2A",
"&  c #161821",
"*  c #221F24",
"=  c #1E212A",
"-  c #1F2025",
";  c #232225",
":  c #23242B",
">  c #29262A",
",  c #2B292D",
"<  c #27282D",
"1  c #322A2A",
"2  c #252532",
"3  c #2C2B34",
"4  c #2C2D3B",
"5  c #272835",
"6  c #312E33",
"7  c #312E3B",
"8  c #3B2D39",
"9  c #2F303A",
"0  c #33323D",
"q  c #3B333A",
"w  c #363336",
"e  c #231C1D",
"r  c #47383B",
"t  c #53373C",
"y  c #2C2E44",
"u  c #2E3143",
"i  c #2E324A",
"p  c #343344",
"a  c #33354B",
"s  c #36394C",
"d  c #393A4C",
"f  c #3B3746",
"g  c #353954",
"h  c #3A3C55",
"j  c #3B3D5B",
"k  c #353857",
"l  c #372F42",
"z  c #3B3E61",
"x  c #353D61",
"c  c #463C46",
"v  c #533E43",
"b  c #443E58",
"n  c #413F64",
"m  c #3B415A",
"M  c #3C4365",
"N  c #4B4346",
"B  c #57464A",
"V  c #484659",
"C  c #584A56",
"Z  c #59545B",
"A  c #565057",
"S  c #63484C",
"D  c #684E55",
"F  c #69545A",
"G  c #77575B",
"H  c #74504D",
"J  c #7C645F",
"K  c #484866",
"L  c #575366",
"P  c #585678",
"I  c #4E4F71",
"U  c #695965",
"Y  c #765C65",
"T  c #665D76",
"R  c #5B6276",
"E  c #796369",
"W  c #686576",
"Q  c #776B78",
"!  c #7A737F",
"~  c #875B59",
"^  c #945959",
"/  c #8D544C",
"(  c #90625B",
")  c #855B64",
"_  c #965867",
"`  c #A45E67",
"'  c #AD5E72",
"]  c #896769",
"[  c #956868",
"{  c #866A77",
"}  c #88737A",
"|  c #9B7374",
" . c #977579",
".. c #956C74",
"X. c #A66769",
"o. c #A77879",
"O. c #AE7377",
"+. c #B3827C",
"@. c #AC807F",
"#. c #96837E",
"$. c #575A87",
"%. c #646886",
"&. c #797997",
"*. c #75708B",
"=. c #5E6084",
"-. c #897686",
";. c #987986",
":. c #827C9A",
">. c #A67C87",
",. c #B37A82",
"<. c #A5798F",
"1. c #C77C8C",
"2. c #7C839C",
"3. c #7E82A4",
"4. c #9C8285",
"5. c #82839C",
"6. c #958597",
"7. c #96999C",
"8. c #A98589",
"9. c #B48384",
"0. c #B98583",
"q. c #BD8A86",
"w. c #B48C8B",
"e. c #BC8C8C",
"r. c #B7868A",
"t. c #A88797",
"y. c #BC8D93",
"u. c #BA8C9B",
"i. c #B48896",
"p. c #B99497",
"a. c #B5918C",
"s. c #8687A7",
"d. c #978FAE",
"f. c #BA8CA3",
"g. c #BD93A4",
"h. c #B897A8",
"j. c #A49CB7",
"k. c #AF94AB",
"l. c #A9A4BB",
"z. c #B7A4B6",
"x. c #C28B8C",
"c. c #C28A87",
"v. c #C4928E",
"b. c #C9938D",
"n. c #C48C92",
"m. c #C38E99",
"M. c #CB8996",
"N. c #C59394",
"B. c #CB9494",
"V. c #CB9A96",
"C. c #C5949C",
"Z. c #CA959A",
"A. c #CC9C9B",
"S. c #C59A98",
"D. c #D29C9C",
"F. c #D29898",
"G. c #D4A29D",
"H. c #DAA59E",
"J. c #CEA29B",
"K. c #C394A4",
"L. c #C396AA",
"P. c #C59BAB",
"I. c #CB9CAC",
"U. c #C799A4",
"Y. c #D49EA2",
"T. c #C59DB3",
"R. c #C78FA1",
"E. c #C8A4A9",
"W. c #D4A3A3",
"Q. c #DAA4A4",
"!. c #DDAAA4",
"~. c #DBA4AA",
"^. c #DCAAAA",
"/. c #D3A6AC",
"(. c #CCA2B4",
"). c #CDA5BC",
"_. c #C7A5B8",
"`. c #D4A4B5",
"'. c #D5AABB",
"]. c #D8A9B7",
"[. c #DCB2BC",
"{. c #DAB1B8",
"}. c #E1ADA6",
"|. c #E2AEAC",
" X c #E3ADB2",
".X c #E1AEB9",
"XX c #E4B1B4",
"oX c #E4B3BA",
"OX c #EBB9BD",
"+X c #E9B5B8",
"@X c #E3B0AE",
"#X c #A9A6C6",
"$X c #B6ACC8",
"%X c #BDB5CD",
"&X c #BCB4D2",
"*X c #ADAED3",
"=X c #ABACD2",
"-X c #C9ACC4",
";X c #D7ADC3",
":X c #C9B7CC",
">X c #DDB4C4",
",X c #D8B7CA",
"<X c #C5BAD4",
"1X c #C9BDD4",
"2X c #C5BCDA",
"3X c #CABEDA",
"4X c #C2B6D2",
"5X c #D5BBD4",
"6X c #E2B5C3",
"7X c #E5BBC3",
"8X c #E6BAC6",
"9X c #EBBEC9",
"0X c #CCC2DC",
"qX c #CCC1D5",
"wX c #D3C5DC",
"eX c #D4C9DC",
"rX c #E4C5DA",
"tX c #CEC4E1",
"yX c #CCC9E7",
"uX c #D1C6E2",
"iX c #D4CAE4",
"pX c #D5CCE9",
"aX c #D9CEE9",
"sX c #DACAE5",
"dX c #DCD2EB",
"fX c #DDDAEB",
"gX c #DDD5F3",
"hX c #DBDAF9",
"jX c #E1D6F4",
"kX c #E3DBF5",
"lX c #E4DDF9",
"zX c #EBD9F6",
"xX c #E7D3EB",
"cX c #DEE3F5",
"vX c #E5E3FB",
"bX c #E9E4FC",
"nX c #ECEBFB",
"mX c #E8E6F5",
"MX c #F2EDFA",
"NX c #ECF1FD",
"BX c #F4F4FC",
"VX c #F8F5FA",
"CX c #EBE5EC",
/* pixels */
"j j z z M M M M M x k x M %.3.2.s.3.s.s.d.3.s.s.&.I m u = = 2 2 = = = 2 g i y 2 m I $.$.#XhXhXcXNXNXNXNXcXcXhXpXmXBXBXNXNXNXmXnX",
"j j j z z m j x z x x x M %.2.3.3.3.s.s.3.3.3.M = & O - o o & & o & + - = = % % $ 2 2 y &.s.j.yXhXcXNXcXNXvXhXyXmXBXBXNXNXNXNXnX",
"m j m h j m j M z j k j M =.&.2.2.3.3.3.s.R = & & O $ & o o X X o o & O $ - & = = : : % 2 y =.*XyXcXNXNXvXcXcXeXmXBXBXNXnXnXnXnX",
"j j m h j m m x z k k k M R &.&.2.2.3.2.K - X o O O O O O o o X X X & + o O - & : = : = % % 4 k 3.yXcXcXvXcXhXyXmXBXNXNXnXnXnXnX",
"j j h m j j j m m g k i M R 2.%.*.%.R 5 & X X X O O o + + O O O O O O - O o - $ $ $ = = = $ 2 2 M 3.yXhXhXhXhXuXmXNXBXMXnXnXnXnX",
"j j j j j j j j x k k x M R %.%.&.P 2 & o X X O o X X O - O O O O O - = = & o - % $ $ $ 2 = : = 2 I #XhXhXcXgXyXmXBXNXnXnXnXnXvX",
"h h j h h j j h g g k x M I %.=.5 & o X X o @ + & O X X O + O O X o & O = % & o % % & o : 2 % $ = 4 m =XhXhXhXtXCXBXnXnXbXnXnXvX",
"h h h j h h h h m i i m M I P i O X X O o O $ $ O + O O O + O O X # # X X O & X o o & X $ $ & 2 = 2 4 m #XhXgXyXmXnXnXnXnXnXnXvX",
"d h h b h h s m k i g i m I I = O X X O O + - + @ X + + $ O + O o # X # X X X X o X X X + $ + : 2 : 2 y s.yXyXqXmXnXMXnXbXnXbXbX",
"h g h h h m h g k i s i s m m & O X O O + + + O O O o O O O + + O O O O + @ o o o X o o $ + $ * : 5 5 i P m &X$XmXnXnXnXnXbXnXvX",
"h h h h h g s g g s i i s m - O @ O O + ; ; ; + + + + + - - ; ; ; w q 6 , > ; ; * + & + + + $ % = 5 y K P x #X#XkXnXnXnXbXbXbXbX",
"d s d d h d s s i i u u u 5 O X @ O + e - $ $ e ; , 6 w r N N N B E ] E F C A q 8 6 < : ; $ + * : 5 y I $.z l.l.CXnXnXbXnXbXbXlX",
"s s h s 0 m f s i u u u u = O o + @ + , , > , r D ] #.8.a.a.8.a.8.a.p.e.p.p.p.t.4.} U N 3 : * ; 2 5 y j I I #Xl.vXnXnXbXbXbXbXlX",
"h s s s m p f a u y u i 4 + O X + + ; 1 r B G | q.a.S.V.S.v.S.S.S.S.A.V.A.W./././.E.p.;.F q , < 2 5 p a j &.$X#XmXbXnXbXbXbXbXvX",
"s s d f m 9 u u i u 4 4 2 O O O + ; 1 B ] | 9.a.a.v.V.V.b.V.S.S.S.V.G.G././.^././.{.{.z.t.E c 0 3 3 4 y h =.j.j.kXvXbXbXbXbXlXlX",
"s s s s u m u m i 9 u 5 = O O O e ; N ..#.w.a.S.V.V.V.V.J.J.J.J.J.!.^.!.Q.^.^./.{.{.{.{.h.p.} A c 3 2 4 K R l.l.mXbXbXbXbXvXlXlX",
"h s s p s s p l u 9 u 5 = & @ @ ; w J #.a.S.S.S.J.J.J.J.J.G.J.H.H.H.!.}.!.!.^.!.@X+XOX[.{.{.p.4.U q 4 p K K #X%XmXmXbXzXbXlXlXlX",
"f p p f p p p p 9 9 4 5 - + @ @ ; N Q a.J.J.S.J.J.J.!.G.!.!.!.G.H.}.}.|.@X^.@X{.{.[.7X+X[.{.'.h.g.Y c d K f l.$XkXbXbXlXbXlXlXlX",
"s f f a p p p u u 9 9 5 = $ + - , N #.a.S.A.J.J.G.W.!.!.}.!.!.!.Q.}.|.XXXXXXXXoXOX7X7XrXqXoX>X'._.t.C b m m l.%XmXbXvXbXlXlXlXkX",
"f p p f p 0 p u u 4 5 < - + $ - , B #.a.S.A.J.G.W.W.H.}.}.@X}.^.|.}.|.|.XXXXXX+XOX7X+XrXoX[.>X>X).t.U b m u j.%XkXvXvXlXlXlXkXhX",
"s p p p 0 0 p 0 9 4 4 5 e + ; ; 6 A ;.S.J.A.G.W.H.H.!.!.}.}.}.}.|.|. X XXX{.XX+X7XOX7X[.6X8X,X8X[.k.T C b a j.:XlXlXbXlXbXlXkXkX",
"p p p 0 0 0 4 0 9 4 5 2 - ; , < w E w.S.W.J.W.W.D.G.G.H.}.}.}.|.}.|.XX X|.|.XX+X+X[.{.{.>X6X8X,X>Xk.T L n k l.<XlXbXlXbXlXlXkXkX",
"p 0 p 4 u 0 0 4 9 < < < - < , , w Q p.J.G.J.A.D.D.D.Y.Y.}.}.}.}.@X@XXX@X|.XXXXoXXX@X@X[.[.6X6X,X,Xz.Q P K g 4XwXzXbXlXlXlXlXlXhX",
"p p 0 0 9 4 0 4 9 3 < < - , 6 w r #.A.G.A.A.V.V.D.Y.}.}.}.}.@X@X@X@X+XXX@XXX@XoXXX+X@X[.[.6X,X,XrX_.:.P K b :XeXkXlXlXlXlXkXkXgX",
"p 0 0 0 9 9 9 3 6 5 < 2 ; , 6 1 J p.J.J.A.V.e.w.S.E./.@X+XXX@X+X+X+X+X+X+X+X+X+XoXoXoX.X[.;X,X8X9X5X<.$.I K <XiXkXbXbXlXzXlXkXgX",
"f 0 0 7 6 6 6 9 3 2 5 < < , 6 A a.J.A.V.a.@.] ) ..w.p.{.[.oXOXOXOXOXOXOXOXOXOXOX8X6X;X].`.(.;X8XrXsX$X*.I K eXeXkXlXlXlXkXkXjXgX",
"p 0 9 0 0 3 3 9 5 < < < < 3 w #.A.A.V.e.| ..] ] Y S F ] 8.g.(.XXOXOXOXOX9XOX+X.X].I.h.t.6.;.f.:XzXzXsX<.P P eXsXzXkXlXlXkXkXgXgX",
"0 9 0 4 9 0 3 3 3 2 2 < ; < 6 t.A.V.v.| @.p.p.a.8.| ..Y S B 8.W.OX9X9XOX+X].U.,.E U C C U { ;.k.rXzXzX-XP T iXsXzXvXlXkXkXkXgXdX",
"0 0 7 7 7 7 9 3 , < > , ; ; 1 8.S.N.e.e.C.S.J.W.G.B.b.e.w.8.8.N.|.+X8XOX XC.>.Y F Y { ;.;.t.k.T.-XjXzX5XL T rXuXlXjXjXlXjXjXgXgX",
"0 4 7 7 7 7 3 3 < < q E t N q F | |  .| ] ] ] ] ] .. .+.>.9.+.v.D. XXX{.I.f.i.i.w.r.n.C.U.(.-X-X;XgXzXsXK %.uXsXkXkXlXkXkXgXgXdX",
"0 9 7 7 7 7 3 , < : B o.o.F A V B r 6 w c N A F F S N w q r F | O.e.Y.I.p.<. .....J H F F ) ;.<.f.-XsXrXb T :XdXkXhXkXhXjXjXgXaX",
"0 6 3 9 4 3 3 6 3 2 B / B.| b A m w Z 7.2.Q } J B r N F G ] D w 8 q 8 q r l 8 q c A Z U *.-.T L b b l b 4 &.:XrXjXjXlXkXjXjXgXdX",
"0 9 3 6 9 6 3 3 , 3 H / y.J.t p.N N p.z.7.Z B -.C q f U G ) [  .q s 0 5 0 d F C v 8 2 l b L -.;.<.k.*.8 y %...m.xXhXkXkXgXdXgXaX",
"0 6 9 9 6 9 6 3 5 5 H ^ c.v.H N.J B E.E.p.] ;.>.;.N C -.G ( | @.v 6 r > 2 U Y C U T l b k.-.T -.f.h.g.T 5 *.^ n.xXjXjXjXgXgXdXaX",
"p 4 3 6 9 3 3 3 5 > S ( 0.O.o.b.#.B E.W.S.@.w.y.p.>.| [ [ ^ o.@.r Y w.| * Q { D G { Y { <.t.k.h.T.-XsX:.l h./ c.xXjXjXjXxXdXdXaX",
"0 4 9 6 6 3 5 3 5 > N [ X.X.+.b.a.N h.W.p.8.N.Z.Z.N.9.,.O.O.0.| 1 p.D.].v Y >.Y ) ..<.<.f.f.h.).-X5XjX<.Z ]._ Z.xXgXjXjXdXdXaXaX",
"0 6 7 1 6 6 , 3 > ; w | X.X.c.N.V.B p./.y.y.A.Y./.A.x.,.O.B.b.) Y Z.Y..X;.C u.8...<.r.i.L.L.T.T.).5XzX-.T R._ 6XdXgXkXgXgXdXaXpX",
"0 6 7 3 3 3 9 3 , > ;  .^ X.B.b.J.] 4.^.y.C././.Y.n.x.x.V.D.B.B p.Y.|..X).8 k.h.i.8.i.u.L.L.L.).-XrXxX*.<.1.,.rXdXdXdXdXdXaXaXiX",
"0 9 4 3 6 3 3 9 , < ; } 9.[ O.N.A.a.Y /.p.S././.Y.V.F.D.G.W...E U.Q.Y..X;XY { h.u.u.C.C.R.f.L.;X5XrX-X-.k.f.I.wXaXdXdXdXdXaXiXiX",
"9 1 3 5 , 3 3 3 < < ; U q.D.O.c.A.W.#.J w.9.e.N.N.v.N.N.y.] F p.D.Y.~. X;Xh.c 4.g.u.i.u.R.L.).,X,X,X-.j._.1.;XiXaXaXdXdXpXiXpXpX",
"9 3 3 3 , < 3 < < < < N S.G.W.e.V.W.|.Z. .....{ ) Y G E G ] 0.B.Y.~.~..X;X`._ v D { ..>.,.L.;X-Xk.-.6.5X'.U.,XeXdXaXdXdXsXiXiXiX",
"9 6 , 6 3 3 < , < = ; 9 p.G.G.e.V.D.Q.^.^. X!.E.C.F.Z.Z.A.b.n.Y.~.~.~..X6X;XL.;.{ F U { -.-.;.<.t._.5X5X;X7XqX0XaXaXfXiXiXiXiXiX",
"6 < , < ; < < - & = - O A J.G.c.B.Y.W.Q.~.!.^.W.D.D.F.D.W.D.|. X XoX X.X;X;X;XT.<.;.<.u.;X.X6X>X,X;X;X,X>X,XqXeXsXdXdXdXaXpXiXtX",
"@ @ X X X X . . X X # X . e 1 J b.A.W.Q.Q.Q.^.^.~.Y.F.Y.D.Q.Y.F.~. X~.~.`.m.I.].<.<.<.R.].;X6X;X;X;X;X'.'.wXqXeXsXiXdXpXiXiXuXtX",
".               . . . . . X X w e.V.G.Q.H.Q.~.~.Y.Q.D.Y.F.F.O.O.M.D.Z.m.<.) ,.I.f.f.R.I.`.;X;X].;X;X;X-X0XeXqXeXiXpXaXaXpXuXuXtX",
"                  .   . . . . + a.B.W.G.H.Y.Q.Q.~.~.Y.F.F.F.c.B.F.B.e.i.i.<.m.I.'.I.I.I.`.].;X;X`.'.;X5XqX0XqXeXiXpXgXaXiXiXtXtX",
".       . . # # . . . . X X X . #.a.D.D.D.Y.Q.Q.Q.~.D.F.F.F.B.N.B.N.n.m.R.L.I.`.].`.`.].].;X].`.`.).-X3X0X0X2XuXpXpXaXpXuXuXtX3X",
". . . . X X X O @ @ @ @ @ @ O O } e.F.D.D.D.H.Y.H.H.D.B.B.n.9.@.n.n.m.m.y.i.u.K.I.`.`.].`.`.(.`.).;X,X1XqX0X3XiXpXpXaXpXuXyXyX3X",
"+ + @ @ + @ O O + O @ O @ @ + 6 Q w.p.A.D.D.Y.H.Y.D.F.e.o.o.o.@.M.M.,.M.n.u.<.<.<.8.g./.`.'.T.`.).-X,X4X0X0X2XeXiXpXaXiXuXuXtX2X",
"+ + + + + + + O + O @ + + + - N L 4.v.V.D.F.D.H.D.c.[ ] o.o.v.B.M.F.R.1.M.R.m.<...Y { u.I.T.`.(.).;X5X1XqX0X1XeXuXiXaXiXuXtX3X2X",
"$ + + + O + O O @ @ + + O O < Z L #.e.B.V.V.D.D.B.[ H [ o.O.X.` X.X.' _ ^ _ _ ..) ) ] ;.L.T.(.(.).-X5X4XqX0X<XeXiXpXpXiXtX0X3X2X",
"+ + @ @ O O O @ @ @ + @ O O $ A L Q w.N.B.B.V.F.b.[ [ ( ^ ^ ` ` ' ' ' ' ,.,.<.' <.] ..o.K.L.P.I.).5X3X2XqXqXqXeXpXpXaXuXtXtX2X2X",
"+ @ @ X @ @ @ @ O X O X O O N m L W 4.y.x.N.V.F.b.O.+.q.b.b.n.M.M.1.1.1.1.R.R.L.f.i.<.i.L.P.U.I.).3X3X4X3X3XqXeXiXiXiXuXtX3X3X4X",
"@ @ @ @ @ @ @ @ O O O X O < W A L R } a.c.b.B.V.V.+.c.b.b.V.F.D.b.r.1.x.n.m.L.R.U.K.K.m.U.U.h._.-X3X<X4X1X3X1XeXiXiXpXuX3X3X2X&X",
"+ @ @ @ @ @ @ @ O O O O - Z W Z A W W 8.e.v.b.B.b.b.b.b.B.B.B.B.c.+.,.O.r.e.m.C.K.K.K.u.K.u.h.(.,XtX2X4X1X3X:XeXuXiXiXuX3X2X2X&X",
"@ @ @ X @ @ @ @ O X O O N W Z Z K W E @.9.q.c.b.b.V.b.b.F.B.B.B.B.n.x.e.n.n.m.C.C.K.K.K.g.g.P.).4X3X2X4X1X1X:XeXuXwXsX3X3X4X4X$X",
"@ X @ X @ @ @ O O X @ < Z Q R W 2.r ~ a.+.+.q.c.b.B.B.B.B.B.B.V.Z.B.N.x.Z.Z.Z.M.K.L.L.K.g.g.z.:X4X0X<X%X1X<X4XwX0XwXiX3X<X4X%X$X",
"@ X @ @ X X X @ O X @ N W 2.7.%XN H ( +.b.a.r.q.x.x.N.B.B.V.B.V.B.B.M.B.C.C.U.U.L.L.L.L.g.L.5XVXfX0X&X%X1X1X:XqX3XuXuX3X2X4X$X$X",
"@ @ X X @ X o O X + N 5.3.s.#X&Xv / [ q.q.q.+.+.r.e.x.N.B.F.Z.Z.Z.Z.N.C.C.C.U.U.g.f.g.g.h.-Xk.CXVXnXfX%X<X4X<XqXtXuX3X1X4X4X&X#X",
"@ X @ X X X X o f R 2.2.2.l.2X0XH ( [ +.q.b.q.+.9.9.r.r.q.x.N.n.N.n.r.r.n.y.n.u.f.f.t.f.h._.T.k.VXNXCXmXdXqX4X3X3XwX3X4X$X$Xz.z.",
"X X X X X X c Q &.:.:.s.5.$XtXdXA ( [ +.c.e.c.r.9.9.| | | >.9.9.9.,.,.o.o.O.;.;.;. .<.t.h.E._.t.VXVXeXCXVXMXpXtXtX3X4X$X$X$Xj.j.",
"@ @ X X f *.-.&.:.:.d.d.d.qXiXvX#.( X.+.q.c.e.q.+.+.| G D ) ] ( [ ..{ ] G D H D U E ;.u.K.P.K.i.CXVXCXfXMXMXMXzXiX3X1X4X$X$Xj.j.",
"X X w W &.&.&.:.:.d.d.*Xj.3XfXkXk.( | +.q.e.e.e.e.q.+. .B S S v B v v r r v v v D } t.i.K.g.g.i.CXBXCXCXVXVXVXMXMXzXaX$X$X$Xj.j.",
"+ Z *.*.&.:.:.&.:.d.j.&X#X1XkXkXqX] X.+.q.q.e.e.x.c.+.9.o.~ S S G v D t r v L E ;.t.t.u.K.u.p.w.CXVXBXBXVXVXVXVXMXMXVXmX-Xj.k.:."
};
