/* XPM */
static char *Zmx1Y2h0ZW4_[] = {
/* columns rows colors chars-per-pixel */
"64 64 256 2 ",
"   c #030302",
".  c #0C0C0A",
"X  c #090906",
"o  c #14120C",
"O  c #1A1C19",
"+  c #0D1010",
"@  c #271B0E",
"#  c #241D14",
"$  c #1E2019",
"%  c #23231B",
"&  c #29291E",
"*  c #292418",
"=  c #342514",
"-  c #3B2C1B",
";  c #382917",
":  c #392A16",
">  c #151C24",
",  c #1D2226",
"<  c #1B2734",
"1  c #2B2C23",
"2  c #262927",
"3  c #2E3125",
"4  c #2E332A",
"5  c #2D382C",
"6  c #31352C",
"7  c #34392E",
"8  c #383326",
"9  c #252D32",
"0  c #2B3437",
"q  c #343C33",
"w  c #343E3A",
"e  c #363934",
"r  c #332D24",
"t  c #422E19",
"y  c #452C16",
"u  c #44321C",
"i  c #4B341B",
"p  c #4A371B",
"a  c #553A1D",
"s  c #4C3A23",
"d  c #453624",
"f  c #543D23",
"g  c #593D23",
"h  c #423E35",
"j  c #673C26",
"k  c #633D1E",
"l  c #36423C",
"z  c #3A443C",
"x  c #3A4339",
"c  c #5C4324",
"v  c #5B452A",
"b  c #594429",
"n  c #464338",
"m  c #564634",
"M  c #49442D",
"N  c #624524",
"B  c #684A29",
"V  c #744C29",
"C  c #6D522D",
"Z  c #77552D",
"A  c #654C33",
"S  c #6C5332",
"D  c #675135",
"F  c #7C5B33",
"G  c #775836",
"H  c #764930",
"J  c #7E6139",
"K  c #66411E",
"L  c #1D3045",
"P  c #253849",
"I  c #343D45",
"U  c #273954",
"Y  c #364443",
"T  c #3B4542",
"R  c #3C4A44",
"E  c #3A4A4B",
"W  c #37464B",
"Q  c #394B51",
"!  c #374854",
"~  c #2D4559",
"^  c #37506E",
"/  c #444A45",
"(  c #52554D",
")  c #695644",
"_  c #7A5B47",
"`  c #6F5A52",
"'  c #686557",
"]  c #76664D",
"[  c #485767",
"{  c #535D69",
"}  c #596269",
"|  c #5A6876",
" . c #5B7178",
".. c #636C77",
"X. c #6C6E6F",
"o. c #566559",
"O. c #84552E",
"+. c #885A36",
"@. c #8F4D35",
"#. c #87653B",
"$. c #95663C",
"%. c #A14A3E",
"&. c #8B5B46",
"*. c #984C44",
"=. c #876745",
"-. c #976946",
";. c #997549",
":. c #886B56",
">. c #966A57",
",. c #987757",
"<. c #8C7252",
"1. c #A6744A",
"2. c #A77957",
"3. c #B47B58",
"4. c #A7694C",
"5. c #987A64",
"6. c #88786B",
"7. c #A67B66",
"8. c #B47A67",
"9. c #B05950",
"0. c #C77B66",
"q. c #C37A50",
"w. c #7B8470",
"e. c #AA825A",
"r. c #B8845B",
"t. c #A3824C",
"y. c #978470",
"u. c #AB8467",
"i. c #B78867",
"p. c #BD946C",
"a. c #A88875",
"s. c #B68C76",
"d. c #B99377",
"f. c #93805B",
"g. c #C6896A",
"h. c #C4926D",
"j. c #C7966B",
"k. c #C48B76",
"l. c #CA9574",
"z. c #CC9B74",
"x. c #CD9B7B",
"c. c #C49677",
"v. c #D49A7A",
"b. c #D28C71",
"n. c #CBA177",
"m. c #D3A37C",
"M. c #D9A77E",
"N. c #E3A57D",
"B. c #D68665",
"V. c #3B5D8D",
"C. c #596D84",
"Z. c #5D748B",
"A. c #537194",
"S. c #697886",
"D. c #5374A8",
"F. c #435D86",
"G. c #8C7F81",
"H. c #788995",
"J. c #698BAC",
"K. c #7593B1",
"L. c #5A82B8",
"P. c #6794CF",
"I. c #7CA5CE",
"U. c #6D9EDF",
"Y. c #949191",
"T. c #BA9784",
"R. c #AF9790",
"E. c #BAA392",
"W. c #8799AF",
"Q. c #ADAAAF",
"!. c #99A3B1",
"~. c #C39B84",
"^. c #C89C86",
"/. c #D39C83",
"(. c #C29F90",
"). c #CCA38B",
"_. c #CAA388",
"`. c #D5A383",
"'. c #DCAB84",
"]. c #DDAB8B",
"[. c #D7A689",
"{. c #DCB187",
"}. c #CBA794",
"|. c #D4AA93",
" X c #DCAB93",
".X c #D7AA99",
"XX c #DAB399",
"oX c #CFB397",
"OX c #E4AB87",
"+X c #E8B48B",
"@X c #E3B394",
"#X c #E3B49B",
"$X c #EBBC9C",
"%X c #E8B997",
"&X c #F5BB95",
"*X c #EBB193",
"=X c #DAB7A4",
"-X c #CFB5AB",
";X c #E4BBA3",
":X c #E8BAA5",
">X c #F3BEA4",
",X c #E09A81",
"<X c #FCC49A",
"1X c #F9C69A",
"2X c #EEC19A",
"3X c #D8C3B4",
"4X c #EAC3A9",
"5X c #FFCBA2",
"6X c #F7C7AB",
"7X c #FFD5AB",
"8X c #FDD4A8",
"9X c #E9C7B4",
"0X c #F3CBB2",
"qX c #FCCDB3",
"wX c #FBCEB8",
"eX c #FDD2B4",
"rX c #FEDBB3",
"tX c #FED4BB",
"yX c #FEDABC",
"uX c #F6D1B6",
"iX c #EBD1B2",
"pX c #FFE1B7",
"aX c #89A9CB",
"sX c #8EB1D3",
"dX c #A6B7D1",
"fX c #89B8E8",
"gX c #94BDE8",
"hX c #8FBFF2",
"jX c #9DC2DE",
"kX c #ACC6DA",
"lX c #B3CADB",
"zX c #B4CAD6",
"xX c #99C4EB",
"cX c #97C8F4",
"vX c #98D3F3",
"bX c #B2CEE3",
"nX c #B9CBE1",
"mX c #B7D3E7",
"MX c #A1CAF6",
"NX c #A8D8F9",
"BX c #A8CDE7",
"VX c #B4E7F9",
"CX c #D0CECD",
"ZX c #FEDBC2",
"AX c #FCD9C5",
"SX c #E5D3CA",
"DX c #FFE3C5",
"FX c #FFE5CA",
"GX c #FFEBCC",
"HX c #FDEBD4",
"JX c #FFF5DA",
"KX c #FFF1CF",
"LX c #FFFFFF",
"PX c #FCF7F5",
"IX c #F4EDE5",
"UX c #DDDFE0",
/* pixels */
"Y W ! ! Q Q Q Q Q Q <   < Y L P + P ^ V.A.o.M f B C C C B D C D D D S b - * $ o # # - m ( m / { K.J.J.J.J.J.sXsXI.P.sXsXmXmXbXBX",
"W W ~ W Q E Q Q Q Q ,   9 ~ L P + 5 H.H.o.x c c Z Z C C F G J J J S c M - : = o # @ # & 8 D m n ..J.J.J.J.P.I.sXfXU.fXsXmXmXmXbX",
"W W W W Q Q Q Q Q Q <   < ~ P P $ / f.#.c C F J F C Z J ] ;.;.#.G v f : @ * = @ # o * - ; d A A N ` H.K.K.K.I.fXxXvXxXjXmXmXmXbX",
"Y Y W Q Q Q Q Q Q W 5   0 ^ P P x f.f.F C Z J J Z C C J G J J ] ] J D b : - - - @ @ @ - s d f G G S ] W.K.K.I.sXfXNXvXjXmXmXmXbX",
"Y W W ~ W E E E Q E 5   0 ^ ~ Y J #.C C F #.t.F #.;.;.F b p - b D D D m M b b p i @ @ @ ; f b S F =.=.y.W.K.sXgXxXVXxXjXmXmXmXmX",
"Y Y W W E E R E R E 0   < ^ Q n C J J J #.t.#.t.t.t.B p : M D J D D b p u C v a c d ; @ : t - A C =.;.5.Y.K.sXgXxXVXNXjXBXmXmXmX",
"Y Y Y W Y E E W R R l X 9 Q / b J #.#.#.t.;.#.J C c a p M u 8 8 d M c f v J J G g ; @ = ; b f - f G ,.t.Y.W.sXgXxXVXBXBXmXmXmXBX",
"Y Y Y W E E R Y Y R l . < Q M M #.F #.t.t.#.F F F c : = : 8 - p D B c C C D v = ; ; : : = - v s - f =.,.,.W.sXxXxXVXVXbXbXmXmXmX",
"Y Y l R R R Q R R Y l o $ x a C C ;.;.;.#.<.Z B u * ; M D G ] =.G b v d 8 u p b b b f p y : y d b t v <.,.Y.sXxXxXVXNXxXlXmXmXmX",
"l Y Y E R R R R E E l l 5 8 p c S B F J J c : : = c v C B C C c b b D M s p c ; A S C B g t i y u p c _ ,.6.dXMXMXNXNXBXkXmXmXlX",
"l Y R E R R R R R R z o.x p : - p C J #.Z C c B B c b - : - u a s p - : 8 C G J =.A c u i y = = p g f J <.6.sXMXMXNXvXBXbXmXbXkX",
"l Y R R R Q R R E R R w.M p : p A #.#.F C #.#.C N N a : : M p M = M d v C v B C a t u t i y @ = y N a A =.y.!.MXMXNXcXjXlXmXbXkX",
"l Y Y R R ( R R R R R ] p u p f C C G G B N p y g p - t p - p p u B C =.f B V a p ; i i a p y i i s a N _ 6.dXMXvXNXvXsXkXbXkXkX",
"l Y l R R R R R R R / o.p : = : a B p y = = @ = t : p f a a f N B G Z Z C F V a g g N a y g y g B a s i g :.!.BXvXNXvXI.kXBXbXbX",
"z Y Y Y R R R R R / / ] p : u p c a p y y y y y a N N N K k K Z C Z Z Z +.Z Z V N Z V a p a i k -.j y y u ) Q.MXMXNXvXI.kXbXbXkX",
"l l l R R R R R R R / o.: @ : b G =.N i u i a k a N V V V V Z O.Z K #.$.+.+.+.Z Z V V V a y y a F +.a i g m Q.kXcXNXvXI.dXlXlXkX",
"l l z E z R R R / R z ' d @ : p p y K V V V V Z O.#.#.+.+.+.$.#.V #.#.$.$.+.$.+.V V +.O.K y i V O.#.B k C ) dXdXMXhXvXK.sXzXlXkX",
"l l z l E R R z / z R w.M * = = y V O.#.O.O.$.$.-.-.-.1.1.1.$.O.+.$.$.3.1.1.4.$.O.O.+.$.O.a K V O.#.Z B G 6.aXjXMXhXvXK.aXzXlXkX",
"l l l l R R R R / R z o.D = = p Z O.O.O.$.1.t.t.e.e.2.3.r.1.$.$.1.2.1.1.r.1.1.4.-.$.;.u.1.V V +.-.+.+.G _ Y.fXhXMXhXhXJ.W.lXlXkX",
"l l l l z R R z z z R / o.: = p K O.$.t.r.r.j.z.h.i.r.r.3.$.1.r.g.r.r.h.r.r.r.i.1.8.7.i.u.1.-.,.d.2.<.&.:.W.fXhXgXfXP.D.K.kXlXkX",
"l l l l R R l z z z R x n - = p $.$.t.r.r.j.M.N.z.p.p.i.1.2.g.j.l.h.i.j.l.h.g.h.u.c.c.d.c.i.u.i._.d.d.y.y.aXcXcXfXU.L.C.K.zXzXkX",
"5 l l l l R R R R z R x % 8 y B 1.1.j.j.j.j.OXM.M.x.z.p.g.l.z.v.v.h.l.l.^.h.l.l.i.).|.).[._.p.d.|.x.n.d.E.aXvXxXsXP.D.J.W.zXzXdX",
"5 5 l l z z l z z R R q ( M b =.t.r.j.j.j.M.M.{.'.`.n.x.x.m.`.`.`.j.l./.c.l.l.x.i.`.@XXXXX[.d.T.oX~._.}.oXnXNXNXI.I.V.J.K.zXzXkX",
"5 5 l l l x z z R z z l ( 7 J f.j.j.m.j.j.M.{.+XM.`.x.z.m.`.m.OXM.x./.v.x.v.v.v.^. X;X;X;XXX~.^.|._.XX4X-XzXBXvXsXI.V.Z.W.zXnXlX",
"5 q q w l l l z z z z z z 1 G e.n.M.M.j.{.2X2X2XM.m.z.z.v.`.[.`.`.`./.`.`.].[.OX|.;X:X9X:X-X(.}.oX|.4X0X9X` Y.{ W [ ^  .W.zXmXdX",
"5 0 0 q w l l x z z z z q , ) u.M.2XM.{.2X1X2XN.M.n.x.x.`.`.`.`.'.OX'.]. X@X@X#X:X:X9X:X3X}.y.T.T.=XiXuX9X#XAXQ.J.! ^ < < } Y.dX",
"3 4 6 5 q q w x l x z R q , ) u.n.{.M.2X6X5X2XOX`.`.].OX].].].].].OX X X@X@X#X:X=X=X=X.XE.a.:.] 5._.4X0X:X9X6XR.^ P ! > , , , 9 ",
"3 4 5 7 7 q w x x l q 7 5 2 M y.n.{.M.+X1X5X+X{.+X$X$X$X%X%X@X+X@X#X%X@X X:X X).T.T.a.6.:.:.:.:.5.a.oX0X9X;X X7.    U > , 0 , O ",
"3 3 6 5 q w q x x x x n q n X.e.n.n.n.{.2X2X{.{.%X2X4X>X2X2X%X$X$X%X%X@X X|.~.,._ A g g S :.7.a.a.T..X0X9XXX>X8.+ + L > , 0 , , ",
"1 5 6 7 q q q w x x z n 5 a.pX_.n.j.;.t.t.t.u.p.`.|.{.XX$X$X4X2X4X4X2X#X|.d.7.=.H _ &.5.7.7.u.c.~.~.XXiXwX:XAXR.[ I U > 9 I 9 2 ",
"1 3 6 0 5 q w x q x e e , ] 1X{.n.;.F J J G G J ] ,.e.s.^.@X$X4X%X%X$X#X|.d.s.7.2.+.H G _ &.>.2.p._.#X0XAX#X:XE.! U ! < w  .0 2 ",
"1 6 4 6 5 q q q q x x x 2 ] r.g.n.#.#.#.;.Z C v g k V +.1.c.].%XXX%X$X4X{.^.d.3.@.A s # r ` ` &.i..X0XuX>X|.,XE.[ U ^ < I H.Q 9 ",
"1 3 3 6 5 7 7 q q x q x 1 ) q.q.n.e.;.e.-.+.+.+.G H O.$.$.r.z.'.2X4X4X4XXXc.8.-.@.] n 2 h G.R.*.k.SXAXwXeX`.b.Q.D.^ V.< L H.S.I ",
"1 3 3 6 4 6 7 e 7 7 7 q 2 # j.+Xc.n.r.1.B s d * o 8 j @.@.$.r.'.pXpX0X;X}.s.5.@.H 5.5.X.6.E.R.}.:XAXAXAXtX#XAX!.V.U ^ < L H.H.[ ",
"1 3 1 3 4 7 7 e q 7 7 q 2   ,.OXz.{.j.1.j S _ 8 r h _ j K @.-.2XKXGXrX#XT.T.7.>.*.&.>.5.a.8.k..XuXDXAXAXwX:XAXdXU.V.^ L e S.H.S.",
"1 1 4 1 5 6 6 7 7 7 7 7 2   ( @Xz.2X%Xs.O.H 5.6.` :.+.O.@.+.$.8XJXPXDX$X^.8.7.>.4.4.3.8.~.^.}.:XAXAXDXZX6X-XAXaXU.D.^ U 0 S.H.S.",
"1 3 3 3 4 4 6 7 7 7 7 7 2 X e =XM.1X8X2X2.+.&.>.>.&.$.%.$.@.1.rXJXJXFXqX#Xs.7.7.7.8.k.x././..X0XAXAXDXtX0X.X:XL.L.F.F.U 9 S.H.S.",
"1 1 3 1 4 6 6 q 7 7 7 7 2 X O G.2X2X8XpXOXr.2.3.r.3.1.4.+.O.j.7XJXJXFXrXqX X^.s.8.s.c./..X:X9XtXAXFXAXtX0XT.Q.D.P.D.D.L > ....X.",
"1 1 1 1 r 4 6 7 7 7 e 7 r . + { {.2X8XpX7X{.g.q.r.r.3.-.$.1.2X8XDXGXDXZXtX6X#X[.k.~./.).#X6XtXAXAXZXtX6X;X6.^ F.D.D.D.[ > # 2 2 ",
"1 1 1 3 2 4 6 6 7 7 7 8 4 . . W oXM.1X8XpXrX2XOXz.r.3.3.r.N.1X8XpXDXFXZXtXwX6X#X/. X9XuXtXtXZXAXAXtX6X4X}.' { | | C.A.C.{ } } { ",
"1 2 & 1 4 4 4 6 5 6 6 5 6 . . ! E.p.2X5X8XpX8X8X&XOX'.+X&X1X<X8XrXGXGXFXZXeX6X:X X>XZXZXtXtXZXwXqXqX6X;X~.} { | ..C.C.S.{ ..X.X.",
"1 1 & 1 1 1 4 4 4 8 6 8 7 + . ! S.y.M.1X1X1X5X8X7XrXrXrX7X1X1X8XrXJXJXKXAXqX*X X>XtXtXZXAXwXAXZXtXuX6XXXT...{ { { | S.C.C.} ..{ ",
"1 1 % 1 1 6 4 4 6 6 8 4 7 o . I  .X.d.N.N.1X5X8X7XrXrXrX1X+X<X7XrXKXJXJXAXZX:X/.>XtXtXAXAXAXAXtXqX6X4X).a...| ..C.C.S.C.C.S.C.} ",
"& & & 1 1 1 1 1 3 4 4 4 6 o X W C. .y.m.N.1X1X5X8X7X8X<X<XOX<XrXpXGXHXHXFXAXwX*X#XqXqXtXAXwXtXtXeX6XXXE.a.[ [ / / / I / h I n I ",
"& & & & 1 1 1 1 3 8 5 8 4 O   Y J. .<.p.N.2X1X1X<X5X8X<X&X+X<X5XDXGXGXGXFXZXwX>X>X>X6XtXtXqXqXeXeX4XoXT.5.o + o o . . . o X X X ",
"1 & & & 2 1 1 1 3 3 3 3 5 O   w Z. .' f.M.M.+X&X<X<X<X<X&X&X+X&XeXrXyXDXZX>X,X&X>X>X>XqXwXwXqXwX0X;XT.d.y.o.o + X X . X X X X X ",
"& & % & & & & 1 1 3 6 3 3 $   0 Z. .' ] p.M.+X&X1X<X<X<X<X<X*X4.+X&X6X6X:Xk./.>XqXqXqXqXqXwXwX0X9XoXT.a.&.}.dXr . . X X X X   X ",
"1 % & % & & 1 & 1 1 r 1 4 %   < Z. .z S t.n.+X+X<X<X<X<X7X5X&X-.-.`.*X@Xx.7.~.#X>X6X6X6X6X>X6X>XXXT.a.u.i.@.IXCXX.h 0 4 2 , # # ",
"& & % % % & & & & 1 1 1 3 %   , Z.o.O 8 ;.e.'.+X&X<X<X5X5X1X%Xh.-.u.s.i.8.s.^.). X;X=X;X>X>X>X:XoXd.T.T.rXd.E.LXLXUXS.w 4 r 2 r ",
"% % % % % % % & & & & 1 1 %   O | S.Q.CX<.;.p.{.+X2X@X+X&X%X'.'.c.7.2.&.7.^.(..X|.).~.).=X>X:X.X}.d.T.oXGXpXu.PXLXLXLXUXY.{ 2 2 ",
"% % % $ % % % & 1 1 & 1 1 2 o } UXLXLXLXE.<.u.n.+X'.j.n.M.'.N.OX*X`.8.3./.#X#X.X|.).^./..X:X:X}.d.T.a.iXDXGX-XPXLXLXLXLXLXLXCXY.",
"% $ % % % % % % & & 1 1 e o.Q.IXLXLXLXLX3X<.2.z.+X`.h.p.i.i.b.0.0.0.0.0.0.0.0.~.s.3.i.c./.@X#X(.T.T.T.DXGXGX3XLXLXLXLXLXLXLXLXLX",
"$ # % # % % $ 2 % & 1 T CXPXLXLXLXLXLXLXIXy.e.j.OXm.r.$.@.@.%.@.@.%.%.%.*.*.*.*.*.>.2.k./..X.X^.T.T.=XDXFXFXSXLXLXLXLXLXLXLXLXLX",
"% $ $ # $ # % % 1 h Q.PXPXLXLXLXLXLXLXLXLX3Xu.i.M.l.z.v.*X*XOXb.0.9.%.%.9.9.0.0.~.^.[./././.^.^.T.T.uXDXDXZXIXLXLXLXLXLXLXLXLXLX",
"$ $ % % % O % r Q.IXLXLXLXLXLXLXLXLXLXLXLXPXE.i.l.z.v.N.N.+XOX,Xb.g.3.9.0././. X X X X X.X}.(.^.T.-XtXDXDXAXLXLXLXLXLXLXLXLXLXLX",
"$ O O % % e X.CXPXLXLXLXLXLXLXLXLXLXLXLXLXLXCXd.h.x.M.N.N.v.v.v.x.8.>.-.7.k./.[./. X X X,X.X}.^._.9XtXyXDXIXLXLXLXLXLXLXLXLXLXLX",
"% O % % X.CXLXLXLXLXLXLXLXLXLXLXLXLXLXLXLXLXPXQ.d.v.`.'.OX/.v.l.8.&.j j &.7.8.^..X*X:X X.X.X}.(..X0XtXAXAXPXLXLXLXLXLXLXLXLXLXLX",
"O # % Y.LXLXLXLXLXLXLXLXLXLXLXLXLXLXLXLXLXLXLX9Xc._.`.OXOX*XOX/.i.8.>.*.>.7.^..X:X:X:X.X.X/.R..X:X9XwXwXHXLXLXLXLXLXLXLXLXLXLXLX",
"# n CXLXLXLXLXLXLXLXLXLXLXLXLXPXLXLXLXLXLXLXPX3X'._._.[.*X&X&X>X&X*X#X X.X,X X#X:X>X>X.X(.^.(.:X:X9X0XAXPXLXLXLXLXLXLXLXLXLXLXLX",
"/ Q.LXLXLXLXLXLXLXLXLXLXLXLXLXLXLXLXLXLXLXLXLXSX'.)._.[.OX*X*X*X/./././.,X X.X#X:X:X.X(.^.(..X=X:X9X9XIXLXLXLXLXLXLXLXLXLXLXLXLX",
"IXLXLXLXLXLXLXLXLXLXLXLXLXLXLXLXLXLXLXLXLXLXLXPXoX`._._.~.x./.c.k.8.8.7.8.(.^.(..X^.(.R.}.(..X:X=X:XUXLXLXLXLXLXLXLXLXLXLXLXPXPX",
"LXLXLXLXLXLXLXLXLXLXLXLXLXLXLXLXLXLXLXLXLXLXLXLXSXx._.c.s.u.s.i.5.>.5.5.7.s.s.^.~.R.(..X.X(..X=X=XSXLXLXLXLXLXLXLXLXLXLXLXLXPXPX",
"LXLXLXLXLXLXLXLXLXLXLXLXLXLXLXLXLXLXLXLXLXLXLXLXLX-Xk.c.p.s.7.>.>._ _ *.&.>.>.7.R.}..X-X.X-X-X-X-XPXLXLXLXLXLXLXLXLXLXLXLXLXPXPX",
"LXLXLXLXLXLXLXLXLXPXLXLXLXLXLXLXLXLXLXLXLXLXLXLXLXIX}.i.k.s.a.7.>.` ) ) ` 6.7.R.}..X.X.X.X.X.X-XPXLXLXLXLXLXLXLXLXLXLXLXLXLXPXPX"
};
