/* XPM */
static char *bWVsLWZhcXU_[] = {
/* columns rows colors chars-per-pixel */
"64 64 256 2 ",
"   c #030406",
".  c #050609",
"X  c #07080A",
"o  c #0A0B0C",
"O  c #0A0705",
"+  c #130E0A",
"@  c #18120D",
"#  c #0C0E10",
"$  c #0E1012",
"%  c #121313",
"&  c #1B1612",
"*  c #1C1C1B",
"=  c #181817",
"-  c #0F100F",
";  c #261C14",
":  c #23170E",
">  c #28231B",
",  c #382819",
"<  c #3E301E",
"1  c #1D1E25",
"2  c #181E31",
"3  c #1F2225",
"4  c #232322",
"5  c #2A2826",
"6  c #332B27",
"7  c #38332B",
"8  c #282A35",
"9  c #373637",
"0  c #2E303A",
"q  c #442D1B",
"w  c #49371D",
"e  c #50361E",
"r  c #473827",
"t  c #553C23",
"y  c #453C34",
"u  c #433C38",
"i  c #473227",
"p  c #594226",
"a  c #4B4339",
"s  c #574938",
"d  c #564D36",
"f  c #674928",
"g  c #6B522A",
"h  c #77552C",
"j  c #664C37",
"k  c #69553A",
"l  c #765736",
"z  c #724E29",
"x  c #7C6438",
"c  c #51411E",
"v  c #353C49",
"b  c #2E3850",
"n  c #423D40",
"m  c #3A4558",
"M  c #3B4247",
"N  c #3A4A6A",
"B  c #474548",
"V  c #554C45",
"C  c #5C5349",
"Z  c #474B57",
"A  c #58575A",
"S  c #675748",
"D  c #745E48",
"F  c #6A5C55",
"G  c #775752",
"H  c #796647",
"J  c #696259",
"K  c #776757",
"L  c #756A51",
"P  c #575B67",
"I  c #4C5670",
"U  c #58637A",
"Y  c #696766",
"T  c #786964",
"R  c #777469",
"E  c #676976",
"W  c #787677",
"Q  c #716F78",
"!  c #705E62",
"~  c #845C37",
"^  c #82592F",
"/  c #8A653A",
"(  c #92703E",
")  c #8E5958",
"_  c #886945",
"`  c #94764B",
"'  c #846D58",
"]  c #897559",
"[  c #977757",
"{  c #906C4F",
"}  c #A27B58",
"|  c #A7784E",
" . c #9A6863",
".. c #877767",
"X. c #957B67",
"o. c #877A75",
"O. c #947D74",
"+. c #856D68",
"@. c #A86973",
"#. c #AA7573",
"$. c #A15C66",
"%. c #9A8457",
"&. c #9B824F",
"*. c #A88A54",
"=. c #9A846C",
"-. c #998568",
";. c #898378",
":. c #9B8473",
">. c #988777",
",. c #979076",
"<. c #A68868",
"1. c #AA936D",
"2. c #B69869",
"3. c #A68C76",
"4. c #B4887A",
"5. c #AB947B",
"6. c #A99678",
"7. c #B5977A",
"8. c #B08B69",
"9. c #B8A57A",
"0. c #ADA17B",
"q. c #C29D75",
"w. c #C7AC73",
"e. c #CFB170",
"r. c #C9A35A",
"t. c #596785",
"y. c #5F708E",
"u. c #697388",
"i. c #767A87",
"p. c #677895",
"a. c #6C738C",
"s. c #857E82",
"d. c #B77C84",
"f. c #C07C8C",
"g. c #7B8396",
"h. c #7D85A0",
"j. c #888689",
"k. c #998A84",
"l. c #97938B",
"z. c #868A97",
"x. c #959494",
"c. c #94949B",
"v. c #9B9996",
"b. c #8E909B",
"n. c #A68D86",
"m. c #BA878A",
"M. c #A99787",
"N. c #B49C83",
"B. c #BB9B84",
"V. c #B59D8B",
"C. c #BB9D8B",
"Z. c #B69485",
"A. c #A69996",
"S. c #B69C95",
"D. c #A78F90",
"F. c #BBA385",
"G. c #BCA38B",
"H. c #B8A686",
"J. c #A3A39D",
"K. c #A9A396",
"L. c #BCA493",
"P. c #B9A897",
"I. c #BBB39A",
"U. c #AEA78B",
"Y. c #858CA4",
"T. c #8C94A5",
"R. c #9899A5",
"E. c #989CB3",
"W. c #9DA3B7",
"Q. c #9FA1AA",
"!. c #A4A5A2",
"~. c #A9AAA5",
"^. c #ACADAA",
"/. c #A6A6A7",
"(. c #B8ABA6",
"). c #B4B2AC",
"_. c #A8A9B8",
"`. c #B8B7B8",
"'. c #AFB1B2",
"]. c #A09EA3",
"[. c #C29D89",
"{. c #C48C96",
"}. c #C2A38D",
"|. c #C5A98A",
" X c #C5B48B",
".X c #C4A592",
"XX c #C4AB94",
"oX c #CAAB95",
"OX c #C4AA9B",
"+X c #CBAD9B",
"@X c #C7A697",
"#X c #CBB295",
"$X c #CDB39B",
"%X c #C9B998",
"&X c #D2B49C",
"*X c #D4BA9F",
"=X c #D4B395",
"-X c #D1B493",
";X c #CB93A3",
":X c #C8ADA3",
">X c #CDB3A4",
",X c #C8B7A9",
"<X c #D4B4A3",
"1X c #D4BBA4",
"2X c #DABBA5",
"3X c #D4BBAB",
"4X c #DBBCAB",
"5X c #D5B5A8",
"6X c #C9BBB1",
"7X c #D5BCB2",
"8X c #DABEB2",
"9X c #D8BEB9",
"0X c #D6A6B9",
"qX c #E1BFB1",
"wX c #D7C69C",
"eX c #DAC38C",
"rX c #CBC4A8",
"tX c #DCC3A6",
"yX c #DCC2AD",
"uX c #D3CCAD",
"iX c #D6C7A6",
"pX c #DDC3B3",
"aX c #DAC5B9",
"sX c #DBD4B3",
"dX c #DCD5B5",
"fX c #CBC7B8",
"gX c #E2C6AD",
"hX c #E3C6AA",
"jX c #E2C5B4",
"kX c #E3C5BA",
"lX c #E5CABC",
"zX c #EACBBC",
"xX c #E7CAB4",
"cX c #E5DAB7",
"vX c #E7D5AC",
"bX c #EDE2BD",
"nX c #F4E6BD",
"mX c #E0C587",
"MX c #A8ABC1",
"NX c #AEB2C3",
"BX c #B6B7C7",
"VX c #BABBD0",
"CX c #CDB6C7",
"ZX c #BDC0D3",
"AX c #C9C7CC",
"SX c #D6D4CD",
"DX c #D6D1CF",
"FX c #ECCDC2",
"GX c #E5CBC6",
"HX c #F2D3C8",
"JX c #ECD7D2",
"KX c #EEE5CA",
"LX c #FDFDFC",
"PX c #F8F7F4",
"IX c #EEEDEA",
"UX c #F3DEE1",
/* pixels */
"U.rXuXsXsX Xw.w.w.w.w.w.k = - - X . X X . .   .   X   X . .   . .   . . .     .   o X o - @ > J 0.0.0.R M A %.L ] x g.g.J.h.J.J.",
"P.rXuXsXsXeXe.w.w.w.w.d = - - - X . X .     .     X .   . .   . . . . . .   .   o o   o o o - > ;.0.0.] m P ] &.&.L g.g.T.J.J.J.",
"U.uXuXsXdXeXe.e.e.w.d - o o o o .   . .   X     . # # .   . .   X . .   X X . . . o   . X X o + 5 ,.9...Z Y ] &.&.L g.g.h.J.J.J.",
"I.uXuXsXdX Xw.e.w.d - - o o X X . . . . . . X   . o # . . . o   X . . . X . . . . o o o X O o o % d 9...M Y %.&.%.x g.g.h.g.J.J.",
"U.uXuXsXcX9.2.2.L & - o o o X X . . X . . . . o . . . . .               .     . . . .   X X o o - * ,.] M R &.&.%.x g.g.T.J.J.J.",
"I.uXsXdXcX9.*.*., o o o o X o X . . . . X . . . . .   .       . .   . .   .             . O X O - - C L M Y ` ( &.x v.g.g.J.J.J.",
"I.uXsXdXcX9.0.L - o X X X X X X . o . . . . . . . . .     .   . .     .     . . . .   . . . X X - - > J Z J x x x g g.g.g.J.J.J.",
"I.uXsXdXdX0.%.r - o o X X o X X . X . . . . . . . . .     .     .       . . . . O X   o     X o o o - a M M - - d d J.g.T.v.J.J.",
"I.uXsXdXdX1.%.- o o o X X - X X     X . X   . X . . . . . . . . . . . . O . . . . . X X o # X o o o o 5 v 9 O   % c h.Q.T.J.!.J.",
"I.sXsXcXdX,.L X o o o X X X . . . X . X X X X . . . o X # . . O . X # X X X # . . o # o o o o X X o o = 9 M + + * * J.h.Q.J.~.J.",
"%XsXsXcXsX%.d - - o o X . . . . X X o X . X X # X X + % * 1 1 1 4 1 1 1 1 4 1 > 4 * - . $ # # o o X o % 9 C > ; 7 4 h.J.h.J.!.J.",
"I.sXdXbXdX%.d - o o o X . . o o X # X o X o # = 1 4 1 * % % # o X X X . . X + + % = 1 5 4 * # o o o o $ 9 J w > g 7 J.J.!.!.!.J.",
"rXuXdXbXuX&.7 - o o o o o o o o o o # $ = 1 4 1 % # o # + & : : & @ @ + + O O O       O % ; 4 > % $ o - 8 J < 7 k 7 b.~.T.J.~.J.",
"rXsXcXcXrX] 7 - o X X o o o - o o $ = 4 4 = # o - ; , q i t i q q q q , , , : @ + O O O     O % 4 * $ $ = d w p k u c.~.v.~.~.J.",
"rXsXbXcXrX&.y o o o o o o o # - * 5 4 = o o = q t t f f f f z z f f f f t e q q ; : + O         X $ 4 * - 7 r c d d v.~.c.J.~.J.",
"rXuXbXbX%X&.a o o o o o o o $ 3 4 1 % . & i t f l z z l l l ~ ~ ~ h z z z f f e e q , : +           X $ 5 * a r a d g.^.v.J.~.~.",
"rXuXbXbX%Xx c $ o o o # o * 4 3 % o % < t p f z z l ~ ~ ~ / _ / / ^ ~ ^ ^ ^ h h z f t e q ; @ O   O   O o > a C d C x.^.x.~.~.J.",
"rXsXbXbXU.> 5 $ # o # o 3 3 3 - - > t p p f z h ~ / _ ` ` [ | ` | | { _ / / ~ / ^ ^ h z p e q ; & & > a - X * d R S l.^.x.~.~.~.",
"uXdXbXbX0.H d = # o % 4 5 * $ = , w p p g l l _ ` [ [ [ } 8.8.8.#.<.*.} } } } | | ` _ / ~ ^ z z k ' %.-.a   4 7 R S l.).v.~.~.~.",
"rXdXbXbX0.%.L % o % 5 3 = $ = , w p g l D _ { [ [ <.8.8.4.7.4.7.4.7.4.7.7.q.8.7.8.<.} ` [ ` ` [ *.1.7.5.C - J ..;.L l.fXl.~.~.~.",
"uXdXnXnX0.0.L - $ 5 4 = o - , i t j l D _ { [ X.1.3.7.C.G.}..X@X|.@X@X+XoXoXXX}.7.7.7.-.[ [ [ *.1.9.|.G.L % ;.,.;.R x.rXx.^.~.~.",
"uXcXnXnX,.d 7 - 5 4 % $ - & , r f k D _ ' X.=.Z.S.XX>X3X9X3X7X7X4X7X9X4X3X7X,X(.P.V.6.' L F k %.2.7.|.XX..4 j.,.,.R l.).v.^.~.~.",
"uXdXnXnX,.Z 5 7 4 % % o @ ; < t j S D K +.O.3.V.OX,XaXSXGXGXGXaXaX9XkXaX9X6XA.o.F V V B C K +.S [ 3.|.#X,.V ,.,.;.;.l.rXv.).~.~.",
"fXcXnXnX,.5 7 4 - % & & : , 7 t s s S F R >.D.P.(.,X6XaXaXGXaXlXaXGXGX,XA.l.o.V 0 7 9 8 9 S =.6...K 3.#XL.;.l.,.-.R l.rXv.~.^.~.",
"uXcXKXnX-.6 5 - = C d c r r y s y y u a A A Y Q o.;.D.(.6XaXpXaXGX9X9X,Xk.k.R T T o.k.A.M.M.M.G.N.,.:.G.%X .7.>.L R M.6Xv.^.^.~.",
"uXcXnXnX,.g > o 4 L %.L D k s y y u u 0 4 ; ; 3 5 8 a J k.(.,X7XaX9X,X:XA.M.M.V.C.Z.N.G.}.XXoXoX1X>XXX$X$Xq.|.k k R l.).v.^.^.~.",
"rXdXnXnX6.H >   6 ;.-.-.] S y a V C u 4 5 v B B V V C F o.G.:X,X9X9X8X3XOX.X}.3.[ +...d.n.5.4.|.*X1X$X$X1X$X-Xl k ..l.(.l.^.^.~.",
"rXvXnXnX1.g , O a =.,.-.' s S K K T Y o.D.S.M.>.>.>.:.:.>.V.XX:X:X7XjXpX$X}.<.' F 7 v v a J -.X.F.$XiX1XiX=X-XD d R k.K.v.).~.~.",
"rXsXcXnX%.< s , d ,.6.6.-.K ..>.n.n.M.n.3.>.O.) K { -.<.5.Z.oX3XaXzXlXyX#X7.X.O.c.9 7 i s.s.6 H 7.|.*XtX1X$X2X;.Y R ;.K.l.).^.~.",
"U.uXnXvX1.x 8.` s ,.7.5.-.-.6.M.N.>.+.+.S 9 0 0 ! T G X.<.N.oX5XpXaXgX4X#XC.D.A.(.! y n ].D.X.X.7.|.wXtXtX*X#Xl.R R ;.l.l.^.^.~.",
",.rXvXvXmXw.&.9.] >.N.5.1.6.5.7.X.D S 6 5 4 B Z AX].+. .3.Z.G.&X1X3X4X<X$XL.@XS.S.D.S.S.S.@XoX#X=X*XhXtXtXrXrXU.;.R W ;.l.).^.~.",
"U.rXvXwXmXe.| 8.7.6.H.N.6.7.7.6.X.a , o.E 6 6 W `.].D.n.5.7.C.+X+X<X<X<X#X$X0X:X@Xm.S.@X@X&X*X1XtX*XtXhXiX1X-X%XW R R ;.l.^.^.~.",
"U.w.vXvXmXe.8.8.N.,.G.9.9.7.F.6.O.K ..n.D.o.k.D.S.S.(.P.C.B.[.@X&X<X5X<X=X<X0X5X0X<X:X+X<X4XpXyXyXyXtXtXtX>XoX2X;.R R ;.l.^.^.~.",
"U. XwXwXmXe.r.|.B.6.F.F.F.I.#XXXXXG.V.P.@XS.S.D.m.S.P.S.@X[.[.=X5X4X4X4X<X=X4XqX9X9X8XaXaXlXlXlXgXgXtXtXtXOX[.2X;.Y R W v.).^.~.",
"I.>XmXhXe.e.w.|.[.3.F.G. X%X1X1X&X$XXXG.C.Z.Z.Z.(.:X+XoX.XB.[.&X4XqXqXqX2X=X2XqXzXqXqXFXlXlXFXxXjXgXhXhX2XL.q.2Xo.J K R v.^.^.~.",
"P.rXvXhXe.e.e.7._ X.7.|.|.-X1X1X4XrX3X3X,X:X>X,X0X5X5X:X.X[.[.<XqXqXkXqXqX<X2XqXqXkXzXzXFXlXFXxXxXhXhXhXhXn.oXI.R A Y J J.'.~./.",
"M.wXwX Xr.r.r.| ~ <.7.F.|.#X$XiXyXpXpXuXpX7X3X3X3X4X4X<X@X@X.X5XqXGXqXqXqX<X2X2XkXkXzXzXzXzXzXzXxXhXxXhXiXn.>XY V A W J R v.~./.",
"J.rXrXeXr.*.2.} { #.5.7.|.#X1XiXyXpXaXjXpXpXpX8X4X4X<X<X=X@X[.2XkXGXqXqX2X2X2XqXqXqXzXFXHXHXzXzXxXhXhXhX3X6.aXIXAX/.IXQ.^.^.~.~.",
"J.%XeXI.*.*.q.#.{ ] =.H.}.|.&X1XyXgXgXxXpXjXjXjXyX4X4X<X+X@X[.<XFXGXFX4X2X<X2XxXzXzXHXHXHXHXHXzXxXxXhXtX1XM.(.LXSXSXPXfXLXSX^.!.",
"K.%XwX X*.| *.q. .[ K 6.9.|.%X*XtXyXxXlXlXjXjXkXjXjXyX4X=X.X[.<XkXGXFXqX2X2X=X4XzXFXHXHXHXHXHXzXxXxXxXhXP.A.v.LXfXSXLXfXLXSX^.!.",
"K.rXeX X&.( ( ` |.8.k :.7. X-X1X1XtXgXzXlXlXlXxXGXjX5X+X[.[.[.&XqXGXJXkXqX2X@X=X5XqXHXHXJXHXHXbXzXxXgXiXl.;.j.LX`.SXLXfXLXSX^.J.",
"K.%X%X X` / h g -.|.D J 5.}.%X*X5XyXpXxXlXlXlXlXkX8X<X[.[.B.[.4XFXGXUXGXkX2X@X@X<X5XqXFXHXHXHXzXxXgXyX>X..d g.LX^.IXPXfXLXAX~.J.",
"K.%X XI./ g g c p G.,.a =.7. X$X*XyXyXjXjXjXkXjXqX4X@XZ.[.Z.[.4XGXGXUXGXqX<X<X5XqX9XqXFXzXHXHXzXxXhXtX$XK 8 W LXA.SXSX).PXfX~.v.",
"K.%X XH.g c c < > -.5.d J 7..X#X$XtXpXpXjXjXjXpX7X>XC.4.[.[.[.5XkXGXUXGXkX5X4X4XkXqXqXqXxXzXzXzXxXtX5XU.V 5 W LXl.SXSXK.PX`.~.v.",
"U.I. XI.g g c w , w -.L 9 -.H.oX#X1X4XpX8XjX8X4X,X>X:XZ.[.}.[.7XkXGXGXGXFX4X<X5X4XjX4X4X4XjXlXjXyX1X#XM.B 9 J.PXl.IXLX`.PX).~.x.",
"K.rXw.9.g c c c , r f k > D 5.XX#X1XyX8X8X4X8X9X3X5X<X.X7.4.[.>X0X0X9X9X8X:X:X5X5X5X<X$X5XyXgXyXiXoXH.>.j.x.SXPXl.IXLXfXPXl.W R ",
"U.I.H.9.g g g c w c k k a a =.H.OX1X3XiX3X7X4XpX3X3X<X:X}.3.:.V.+X>X:X:XZ.+.n.S.S.S.P..X#X1X2X2XoXG.M...a B ).PX6.PXLXSXPXv.j.j.",
"U.H.9.9.h g g x ,.l.v.v.g.a ..7.G.#X$X3XpXyXyXpX3X5X<X@X}.X.G S #.n.n.3.V A F s.o.K +.o.V.#X*X&X.XN.n.K 4 3 ~.LX;.LXPXSXPXJ.x.;.",
"v.I.P.P.,.K.J.^.~.v.l.x.W 7 C ,.M..X$X1XyXyXyX1X>X:XP.M.>.+.V B C ..s.! B T o.O...! C a ...X&XoXH.5.>.W Z 1 ).PXo.LXPXSXPX'.J.l.",
"`.'.W._.W.!.T.z.g.i.E A M 5 a ] <.N.XX*X3XrX5XOXU.n.;.O.+...F O.O.S.;X;Xm.m.C.7.Z.3.G F -.XX*X#XM.=.O.x.BXc.AXUXW LXIXSXIX^.J.l.",
"W.E.T.T.g.h.g.g.E P P M 5 * 5 L <.M.G.#X<X1X$XL.o.F T O.:.>.n.Z.m.S.S.m.m.m.4.#. .) ..:.M.#X#XG.N.:.O.R._._.AXDXj.PXIXSXIX~.!.l.",
"g.u.U I I I m m M 0 8 3 * $ 4 C =.5.N.G.+X%XXX;.B V K :.#.[ #.#.#.@.O.#.#.@. .$. .#.oXOXoXoX.XN.3.:.o./.Q._._.BXAXIXUXSXSX!.Q.l.",
"I I t.t.t.U U U I m M b 8 M g.d ' -.5.M.L.oXG.;.C C r j G )  . . .) ) ) ) $.$.@. .C.<X1X>X#XF.<.....T R.Q._.R./.`.VXAXIXSX~.!.x.",
"t.p.p.g.g.y.y.y.U I m m Z v.;.C S [ =.6.F. X.XM.O.+.G )  .$.@.$.@.$.$.d.f.f.f.#.4.=X3X3X$X}.3.+.' A Q W R./.c.Q._.BXNXAXSX'.Q.l.",
"y.t.y.y.y.t.t.U I N M 8 x.x.A J u K ' -.5.G..XG.Z.S.n. . .#.d.{.{.{.;X0X0X;X#.4.}.&X2X5X$XB.<.X.K Q j.W W j.b.R./.'.'.BXAXZX/.l.",
"t.t.N N b 2 8 y.g.m M E ~.W 9 L D r S ' ..6.H.P.(.>X+X4. . .#.{.{.;X;X;X;Xf.q.Z.}.$X*X1XXXM.3.] Y E.E.b.j.s.W s.c._.Q.]._.ZXAXQ.",
"y.N N N b m u.R.x.I N ~.v.Y 4 d -.i y S L X.6.N.$X%X$XL.<. . .@.d.f.d.d.#.O.#.C.oX&X<X&X#XN.=.F f.MXE.E.].s.s.s.Q j.R.].R._.BXAX",
"t.t.I N b u.T.W.Q.P E '.g.Z . a <.L > s k L X.5.L.+X+X.X7.-. .' G ) ) ! +.3.C.oX$X&X&XOX.XV.+.A MXVXMXMXs.P A V B B A i.v.].R.BX",
"p.t.N N U g._.`.Q.U x.'.i.0 5 a %.<.S 6 a s ' <.5.G.XXXXC.C.Z.X. .O.O. .Z.C.@X+X1X1X$XoXF.=.s Q MXVXMXMXMXU Z Z B v 9 0 B s.c.R.",
"p.t.N I g.T.`.BXNXg.c.Q.U Z 7 a <.8.-.r > 7 S ' -.5.G..X}.L.L.G.S.S.@XC.S.OX+X>X>X<XOXV.:.S u z.W.MXVXMX_.t.E E P P A Z m B E j.",
"p.t.t.y.g.R.BXBXNXY.Y.T.P i.8 s -.8.<.] 5 1 7 D ..5.N.V.V.C.XX.X@X:X:X:X:X:X:XOXOXL.C.X.S > F s.W.MXVXVXMXp.t.E o.a.Q a.Q P Z A ",
"h.y.t.u.z.R.'.BXVXE.Y.s.E g.1 k <.8.1.<.S = ; 7 S ] 3.M.N.V.L.S.S.P.P.OX@XP.P.M.>.X.O.C 4 1 O.s.E.MXVXVXMXMXp.t.b 5 9 B Z P P Z ",
"NXW.h.a.g.T._.BXVX_.T.t.i.j.1 D <.8.1.1.[ S ; % 4 S ' =.3.n.M.O.O.n.D.m.n.>.k.+.+.a V ; - u <.o.s.E.BXVXVXMXMXs.t.1 o m Z 2 1 v ",
"BXBXNXE.z.z.E.NXBXBXE.t.g.z.* D <.1.1.<.<.[ y % O 4 a S K K T K F R k.O.! ! T C u 1 1 O 4 3.8.! b.c.MXZXVXMXMXE.p.m 8 a.a.P 2 1 "
};
