/* XPM */
static char *bWdvbWVz[] = {
/* columns rows colors chars-per-pixel */
"64 64 245 2 ",
"   c #030201",
".  c #090602",
"X  c #0C0905",
"o  c #0C0C0A",
"O  c #060809",
"+  c #130D06",
"@  c #120E0A",
"#  c #190F07",
"$  c #14110C",
"%  c #1B140C",
"&  c #1A1208",
"*  c #0A0D15",
"=  c #141312",
"-  c #1C1612",
";  c #1D1913",
":  c #17191B",
">  c #0D1115",
",  c #22160C",
"<  c #24190D",
"1  c #2A1A0D",
"2  c #231C13",
"3  c #2A1D13",
"4  c #231D18",
"5  c #341E10",
"6  c #2C2115",
"7  c #2C231B",
"8  c #27241D",
"9  c #33251C",
"0  c #3C2B1C",
"q  c #372616",
"w  c #38210D",
"e  c #0F172B",
"r  c #1C232E",
"t  c #262728",
"y  c #342B22",
"u  c #392C23",
"i  c #3C342C",
"p  c #3A3327",
"a  c #272C37",
"s  c #3B3834",
"d  c #462C17",
"f  c #49321D",
"g  c #58351A",
"h  c #512C11",
"j  c #673919",
"k  c #483728",
"l  c #583B27",
"z  c #463D37",
"x  c #483427",
"c  c #623D22",
"v  c #3F413B",
"b  c #72441C",
"n  c #4C463A",
"m  c #564637",
"M  c #5B4731",
"N  c #67462B",
"B  c #784A27",
"V  c #664A36",
"C  c #735439",
"Z  c #0D1C48",
"A  c #2A3349",
"S  c #142962",
"D  c #3E4453",
"F  c #36446E",
"G  c #4C4946",
"H  c #554C45",
"J  c #5A544B",
"K  c #5A5856",
"L  c #484D58",
"P  c #665747",
"I  c #795C47",
"U  c #635D57",
"Y  c #6C524C",
"T  c #6A6557",
"R  c #776B58",
"E  c #675D63",
"W  c #746B65",
"Q  c #79756A",
"!  c #7D7D73",
"~  c #797574",
"^  c #6B6B6E",
"/  c #535B68",
"(  c #844A1D",
")  c #88552A",
"_  c #945929",
"`  c #875938",
"'  c #945B35",
"]  c #814C24",
"[  c #986439",
"{  c #976131",
"}  c #A66A37",
"|  c #B8763D",
" . c #AF6835",
".. c #C1793F",
"X. c #855A42",
"o. c #9A6944",
"O. c #876A56",
"+. c #98765A",
"@. c #8A6C52",
"#. c #A46C46",
"$. c #A8734A",
"%. c #B77A46",
"&. c #AA7755",
"*. c #B47D58",
"=. c #B4694B",
"-. c #877C69",
";. c #947E62",
":. c #847D73",
">. c #967471",
",. c #AB7C67",
"<. c #A55F40",
"1. c #C57B46",
"2. c #C36548",
"3. c #7E8177",
"4. c #C6813E",
"5. c #BC824D",
"6. c #B9835A",
"7. c #A98156",
"8. c #8B806E",
"9. c #958165",
"0. c #95836B",
"q. c #99876C",
"w. c #8D8271",
"e. c #83857C",
"r. c #86867A",
"t. c #948572",
"y. c #9C8B74",
"u. c #958B7A",
"i. c #9B8E7B",
"p. c #958975",
"a. c #9D917D",
"s. c #B88865",
"d. c #A28E79",
"f. c #A1937D",
"g. c #B48C6D",
"h. c #C88448",
"j. c #D48A4B",
"k. c #C68656",
"l. c #D89454",
"z. c #CF8E53",
"x. c #E59A59",
"c. c #EDA35D",
"v. c #C38B65",
"b. c #C68D69",
"n. c #CB946C",
"m. c #C79268",
"M. c #D5996A",
"N. c #CC9672",
"B. c #D49B73",
"V. c #D99A75",
"C. c #DB8A69",
"Z. c #E59D65",
"A. c #E99A76",
"S. c #DBA479",
"D. c #D8A26A",
"F. c #F3A966",
"G. c #E6AA79",
"H. c #FDBA76",
"J. c #F2AD6D",
"K. c #FEC27D",
"L. c #1A398A",
"P. c #264892",
"I. c #345EB7",
"U. c #71778E",
"Y. c #4C64A0",
"T. c #3F74D4",
"R. c #837F81",
"E. c #7485A9",
"W. c #5F90E3",
"Q. c #868A83",
"!. c #8A8C85",
"~. c #8B8E89",
"^. c #848682",
"/. c #8D918B",
"(. c #8E9086",
"). c #93938C",
"_. c #999588",
"`. c #9B9C95",
"'. c #989A95",
"]. c #8E8C8F",
"[. c #A29681",
"{. c #A59985",
"}. c #A59C8A",
"|. c #A99E8C",
" X c #A89B83",
".X c #A49F92",
"XX c #9EA099",
"oX c #AAA08E",
"OX c #A6A396",
"+X c #AAA294",
"@X c #A4A39B",
"#X c #A9A59A",
"$X c #B2A394",
"%X c #9293AC",
"&X c #9EACB1",
"*X c #A8AAA7",
"=X c #B4B3AC",
"-X c #A9B8BA",
";X c #BBBCB4",
":X c #B7B9B5",
">X c #ACAEAF",
",X c #D3A682",
"<X c #E6AC85",
"1X c #EAB487",
"2X c #F7BB89",
"3X c #FABC93",
"4X c #F8AD87",
"5X c #C0BFB9",
"6X c #BEC0BB",
"7X c #FDC68A",
"8X c #FFCB9B",
"9X c #FBC695",
"0X c #FFD398",
"qX c #FFD48F",
"wX c #C2C3BC",
"eX c #C4C8BF",
"rX c #FECDA1",
"tX c #FFD8A6",
"yX c #FFDDB0",
"uX c #FFE5B5",
"iX c #FFE7AE",
"pX c #A8B9CA",
"aX c #AEBCCE",
"sX c #9FB9CA",
"dX c #ADC4D7",
"fX c #B9CBD8",
"gX c #B8C9CD",
"hX c #BCD3E4",
"jX c #B4CDE4",
"kX c #C7C9C4",
"lX c #CED1CC",
"zX c #C6D5DA",
"xX c #D0D3D4",
"cX c #C6D9E4",
"vX c #CFDBE8",
"bX c #CFE2EB",
"nX c #D5E3E9",
"mX c #D6E9F6",
"MX c #CCE4F5",
"NX c #E8E9EC",
"BX c #E7EDF2",
"VX c #E7F4F9",
"CX c #FFFFFF",
"ZX c #F3F8FA",
"AX c #E7D1D0",
/* pixels */
"'.'.`.`.'.).)./.~.E.3.3.Q.8.3.3.3.3.3.r.r.E.3.3.`.3.`./.a.E.3.o t &X-X&XE.: &XgXgXzXzXzXzXzXcXcXzXzXzXzXfXfXfXzXvXVXCXCXCXmXnXnX",
"`.`.`.'.'.'.).).r.r.e.e.E.r.3.3.3.3.r.r.3.a.a._././.E./.a.E.J $ 8 &X-X-X-X; &XzXzXcXcXnXbXnXbXbXbXbXcXzXhXhXcXcXmXCXCXCXVXvXcXcX",
"`.XX'.XX'.'.).).(.r.Q.^.Q.e.r.3.3.3.p.E.a.3.`.E././._.(.3.`.3.$ 8 &X-X-XgX: gXzXbXbXbXbXnXmXmXMXMXMXbXhXjXjXjXjXmXCXCXCXvXaX&XaX",
"XXXXXX'.`.'.'.).(.(.e.Q.Q.Q.r.3.3.3.3.3.E.a.3.`././.XX3.3.3.3.8 8 &X6X-X-Xs 6XbXmXMXmXbXbXcXhXhXjXjXdXsXsXsXsXpXvXCXCXBXhXaXpXfX",
"XXXXXX*X`.`.'.'.).~.!.!.Q.Q.Q.r.3.r.r.a.3.`.3.a././.3.3.v v p p p J 3.a.`.v &XbXzXfXcXcXcXhXcXhXhXjXfXdXdXsXdXdXcXBXBXcXfXpXsXfX",
"XXXXXXXX@X`.'.'.'./.Q.Q.~.Q.Q.e.8.3.r.3.3.3./.E.(.(.3.p n p p p p i J T 3.3.3.zXzXzXbXbXcXcXcXcXhXhXhXhXjXdXdXdXaXcXcXcXcXcXaXfX",
"XXXXXX@XXX@X'.'.).~.!.!.~.!.Q.r.3.3.3.3.3.3.r.a.3.3.J p 8 p p p p p p 3.3.P 3.-XkXzXxXxXvXbXvXnXbXbXbXMXbXmXmXmXmXmXmXVXVXVXzXzX",
"@X@X@X@X*X`.`.'.'.).!.!.!.(.(.Q.3.3.3.3.3.3.3.3.3.3.p p ; ; < 8 7 y v T n T 3.r.).*XgXnXnXZXZXCXZXCXZXZXZXVXZXCXZXVXVXVXmXVXvXhX",
"XX@X@X@X@XXXXXXX'.).!.(./.).!.r.3.3.3.3.P P n n n v 8 $ o o o ; < 8 p p n m P 8.=X*XlXZXBXBXCXCXCXZXNXCXCXvXBXZXvXvXnXnXNXZXBXhX",
"@X@X*X@X@XXXXXXX'.)./.(.!.!.r.Q T 3.3.T n q 8 8 % o X X X     X $ + + = 8 7 n P T >XkXxXvXxXNXnXnXnXBXCXCXZXCXCXCXCXCXCXCXCXZXcX",
"@X@X#X#X@X@XXXXX`.'./.!.! Q Q Q 3.n J n 8 ; $ $ o X X o o X X X O X X $ - ; 8 k m -.gXZXCXCXCXZXCXCXCXCXCXCXCXCXCXCXCXCXCXCXCXnX",
"@X*X*X@X@X*XOXXX`._.(.r.! Q 3.T T J p 2 < ; $ o ; ; o o ; $ $ X o o   X O = ; 9 z m ~ CXCXCXCXZXCXCXCXCXCXCXCXCXCXCXCXCXCXCXCXVX",
"*X*X@X*X*XOX@XXXXX`._.r.Q ! Q T J p 7 & < 6 ; % 8 % = ; ; $ $ X o ; @ .   $ ; 8 3 z J NXCXZXZXZXCXCXCXCXCXCXCXCXCXCXCXCXCXCXCXVX",
"@X@X@X@X@XOX@XXX`.`./.r.8.Q T n 8 % < ; 2 ; $ % + & 8 ; ; < 2 < & ; 8 & . o O = > - i R.zXaXaXvXCXCXCXCXCXCXCXCXCXCXCXCXCXCXCXZX",
"@X#X#X*X@X*X#XXX`._.r.r.W 3.T i ; $ $ % ; X X X X < < 2 2 7 0 p ; ; % 7 $ X o $ @ - y H E aXNX%XCXCXCXCXCXCXCXCXCXCXCXCXCXCXCXCX",
"*X@X#XOX@X@XOXXXXX_.u.3.T n 6 ; < $ $ $ X X X X $ ; 6 y $ @ 8 p ; 8 7 7 ; X O $ 4 4 7 y z E U.R.CXCXCXCXCXCXCXCXCXCXCXCXCXCXCXCX",
"OXOX#X#X@X@XOXXX`._.r.3.T p < & % $ $ + X + + X X $ % ; + X ; 8 o , 4 - % = = @ o o = - t z z K NXCXCXCXCXCXCXCXCXCXCXCXCXCXCXCX",
"@XOX@X#X@XOXOX.X`._.3.m y 7 $ $ + & + $ 2 ; ; $ & X $ % $ . $ X X = 4 7 @ - 9 4 o @ * = 4 9 z E >XCXCXCXCXCXCXCXCXCXCXCXCXCXCXCX",
"OXOX#X#XOXOXOX`._._.R p 6 < < % + $ + ; 6 y < X M & & $ $ . . . . @ 9 u % % 3 3 x y @ - 4 7 u G ].BXCXCXCXCXCXCXCXCXCXCXCXCXCXCX",
"#XOXOXOXOXOXOX.Xa.3.3.p < < 6 < + X X + & & & + C f & X X X + $ = 2 y 9 3 @ 3 4 9 7 - = 4 4 : 4 U.fXZXCXCXCXCXCXCXCXCXCXCXCXCXCX",
"#XOXOX#XOXOXOXoXr.R P p & & ; & $   X X & f 6 d b [ M % + 6 f x , 3 u l l > 5 k x 0 3 - - = = 7 H ].CXCXCXCXCXCXCXCXCXCXCXCXCXCX",
"OX#X#X#X#XOXXXa.8.T n q & + . $ $ X   o & B ) { { { | ` N B b l d u l o.B c l l x x 3 @ - : > 4 H E xXBXNXBXCXCXCXCXCXCXCXCXCXCX",
"OX#X#X#XOXoX_.u.8.m z 2 X . . .       X & B { } { } D.v.%.7.[ ` o.,.g.,X<.X.f x 0 x 9 - - - = 4 z Y >XBXZXZXCXCXCXCXCXCXCXCXCXCX",
"#X#X#XOXOX`.`.u.P f p < & + . . . . X X 1 b } } { D.qXiX0XG.1X1X<XV.*.,.X.c 5 0 x x x - - 7 7 u x k G %XfXCXCXCXCXCXCXCXCXCXCXCX",
"$X#X#X#XOXOX_.w.i p < < & X . X ; + . & q b ) { z.K.0X0X0X0X0X8X<Xg.` N 9 - 3 d l k u 2 = 3 u 9 9 x x E %XNXCXZXNXCXCXCXCXCXCXCX",
"OX$X$X#XOXu.a.T p 6 & & X . & + % % & % w B 5.z.6.7.9.g.S.9X9X1X<Xs.@.C l V @.g.g.m.X.4 @ - 7 3 9 m t s ~ R.ZXkX*X>X].U.xXCXCXCX",
"#XOX#XOXOXoXu.T p < & & . X < & % % + % w N c d w 6 q g [ D.G.G.S.n.6.$.' ` X.&.b.M.,.5 o X 2 2 - V l z m O.$X_.].W a a A NXCXCX",
"OXOX$XOXOX.Xu.J q & & & &   + & & & & , < w 0 d 0 l N B [ 5.M.D.G.s.$.' l q d H X.&.6.V @ o = 2 @ z l 9 G Y d.Q W ].E G A NXCXCX",
"$XoX+X+X+X}.p.V f 1 & < &   + X . X , , w [ $.7.7.} { ) ( _ 4.7X9X*.#.X.I y s >.Y X.*.@.# X @ = = x Y 0 x I +.d.z :.>.-..XCXCXCX",
"+XoX+X+XoXoXu.-.n 1 & 6 + . . X . + & 1 N | $.) c p N B b j 5.qX0Xn.&.X.X.V Y >.&.N.N.,.1 @ X o @ 3 I l V Y Y @.L G J s z %X'.^.",
"oX+X+XoXOXoXu.p.n < < & & . X X + X + w b ) c f < ; Q c g j l.7XtX7X6.&.&.&.6.V.<X1X,Xv.x @ . o % 3 c V V @.X.O.U.T.E.Z = a D U.",
"oXoXoX+XoX|._.y.M & & < &   . X .   . w b b w I p 0 @.g j | c.7XiX0XJ.V.M.V.<X3X8X8X2XV.X.@ . @ 2 9 x N V >.I >.R.I.W.I.e : A A ",
"oXoXoXoXOXoXa.R q 1 & , +         . X q b b j B [ [ [ %.l.F.F.K.tXtX2X2X0XrX8X8XrXrX9X1Xs., . % - 3 u l l ,.R ^ U.Y.I.T.L.* L a ",
".XoXoXoXoXf.p.n 6 1 & + +             q B B } 5.5.M.G.H.K.F.F.7XuXiXtX7X0XuXuXyXtXrX8X2XB.q . o @ 3 9 y k X.M ^ Y.I.P.L.P.Z L a ",
"oX.XoXoXoX{.q.6 % , # # X             f { _ z.J.7X7X7XqXH.c.J.7XuXuXuX8X9XtXuXyXtXrX9X3XS.x X @ + - , 9 0 X.Y Y.S A L.L.S * A * ",
"oXoX}.oXoX}.a.p 6 1 + + .             f { } l.K.qXqXqXqXH.c.F.J.0XtXrX9X9XtXyXyXrX8X3X2XS.k , 5 < , 3 0 0 ,.,.F e Z S S S * a : ",
"}.oXoXoXoXf.p.n < < + X               d } h.l.J.2X7X0XqXH.c.x.o.z.S.s.*.2X8XyXyXtX9X3X2X,XV l ` V 3 , 7 V ,.AX:Xe e Z Z Z * e r ",
"oXf.oXoXoX_.y.u 6 1 + + .             6 %.l.Z.F.H.7XqX7XH.x.z.B #.M.B.N.2X7XtXtXtX8X3X2X<XI l V % 4 k J R.AXNXZXaXe e Z e * * @ ",
"oXoXf.oXoX{.a.m p 1 & X .             % %.j.x.c.J.7XqXqXK.H.| _ $.m.m.n.H.7XqXtXtX8X3X2X<X@.% . o % 2 ^ lXNXZXZXCX>Xe Z e * r O ",
"f.f.f.oXf.oXf.Q V 1 , X               X [ h.j.x.F.H.7X7XK.H.F.h.%.6.o.' v.G.2X0X0XrX8X3X4X,.- . . o = J ZXCXZXZXBXBXF e * * A * ",
"oXf.f.oXf.f.f.f.9.V 6 & + .     .   . . N | 4.j.x.K.K.K.F.F.l.{ 5.M.M.*.*.A.k.v.G.9X8X8X3Xg.;   . X 8 p =XlXlXlXxXAX/ e * O e r ",
"a.oXf.oXoXf.f.f.a.p.m 8 + X +     . 5 + x | 4.j.x.J.F.F.l.l.%.=.k.Z.A.1.*.b.s.6.S.9XrXrXrXg.4 O . @ : G =XlXlXlXlXxX^ * O   O > ",
"a.f.f.oXf.f.f.f.[.f.u.P ; X &     + d , 5 $.4.j.x.F.c.z.4.| }  .2.2.2.2.=.=.o.o.M.1XrXrX9Xg.4 @ o ; G `.6XlXlXlXlXlX3.  O     o ",
"f.f.f.f.f.oXf.oX[.a.a.u.Q k +           + } 4.j.l.c.l.5.{ b _ k.<X*.<X3X3XV.A.<XG.1X9X9X1X+.- 4 = n Q eXlXkXkXlXlXlXXX        o ",
"f.f.f.f.f.f.f.oX[.[.a.y.u.R -             N | h.j.x.j.4. .1.1.A.4X4X4XA.C.A.G.H.1X1X1X1X1XP 4 i 8 H r.kXkXkXeXkXkXkX>X      t U.",
"f.f.f.oXoXf.f.f.[.[.a._.a.w.7 X           3 } | 4.4.4.h.l.1...| 2.2.<.#. .C.G.1X1X1X1X1Xg.u 2 7 H e.;XwXkXkXeXkXkXlX6X>     r L ",
"f.f.f.f.f.f.f.oX[.[.a.a.a.i.W $ .         . C  .| | 4.j.l.j.| _ h w c ' v.G.G.4X1X1X1X,XI & % 7 W =XwXkXeXeXeXkXkXkX6X=   : E.Y.",
"f.f.f.f.f.f.f.a.[._.a.a._.u.w.H @           d ) {  . ...4...l.l.C.<X9X9X9X7X2X2X2X9X1Xg.P + @ 4 :.;XwXkXeXwX6X6X6XkXkX:   r t U.",
"f.f.f.f.f.f.f.f.f.f.a.a.i.i.p.Q i           5 g ] _  .4.h.l.Z.J.7XK.G.G.2X7X2X3X9X1Xg.,.O.+ = y .X5XwXkXwX6X6X6XwXwXgXt   O a F ",
"f.f.f.f.f.f.y.a.f.f.a.i.y.u.p.8.T $ O       1 d g ) { | l.l.c.F.J.Z.k.k.m.B.S.<X<Xs.$.n.O.% 8 W =XgXwX5X6X6X6X;X=X6X6Xs     A W.",
"d.a.a.d.d.f.y.d.f.a.a.y.u.y.w.w.8.J $ .     d j h h b { h.l.l.z.h.[ o.` ` [ &.&.+.X.s.N.+.4 ~.=X;X5X5X5X6X6X:X:X=XwXwXG * r : E.",
"d.d.a.y.y.d.y.a.f.a.d.y.u.u.w.w.-.R s .     l b b h d h ) }  .{ B g f q d k l l M +.s.N.,XW _.:XwX;X;X5X6X=X=X=X6X=X;XQ a t * / ",
"a.y.y.a.y.y.y.a.d.y.u.y.u.u.w.w.:.-.-.J X   c ( _ ( j h w d g j d 1 & & # # 1 q N 6.n.B.g.$   = v ~ `.:X:X=X=X=X=X:X:X! n s s K ",
"y.y.y.g.y.y.y.y.p.d.u.t.t.w.w.8.0.8.:.-.p ; B  . ._ ( j w , , , $ X   . @ 1 5 V &.b.B.S.,X@.<     o $ > v W XX>X=X>X=Xr.n G G J ",
"y.y.d.y.y.q.y.y.y.y.p.y.w.0.0.w.-.-.-.-.T 0 ) %...|  .b h h d 1 & ; k C I @.+.s.v.n.M.S.S.M.N.3     o $ o o > J #X*X=X!.G J J K ",
"y.q.q.q.q.y.q.y.y.y.p.t.w.8.0.:.-.-.-.@.B h } 1.4.4...} ( j b ) B ` &.*.s.s.6.6.m.M.M.B.S.n.A.s..   X o o o X o t .X*X'.K K K E ",
"y.q.0.q.q.0.p.p.t.t.q.0.-.-.T Q Q J M k. .b  .h.j.j.1.%.<.] ] ) ' [ #.*.6.7.s.s.n.V.B.B.B.n.M.G.f     O X o O X + t .X'.~ ~ W W ",
"q.9.q.q.9.q.0.q.t.t.t.R p X   @ $ X V Z.4. . .j.1.h.j.1.| ' ] ) ' ' o.*.&.*.6.v.n.V.V.B.B.k.M.V.n     . X O .   X o G ).~ ~ ~ U ",
"q.9.9.q.q.9.0.0.;.W i .       O O   6 G.l.....1.j.k.j.1.1.} ) ) ' [ o.#.*.*.s.v.b.B.B.N.n.v.B.V.+       o o . . . o o - O       ",
"q.9.9.9.q.9.9.n 4 X . + .     O .     g.c.j.....1.j.k.z.k.k.} ' ' [ #.&.*.*.*.v.b.N.N.n.n.b.B.P           O O O   X O = t :     ",
"9.9.9.9.0.8.7 X . . X + .             k G.l...1.k.z.k.k.v.k.=.[ ' o.#.&.&.&.*.b.b.b.b.N.n.v.,.X           O X .     O X > : t : ",
"9.9.9.+.9.m X + . X X X X               I x.1.| 1.h.k.1.1.k.*.#.o.o.#.#.$.$.*.b.b.v.b.N.N.g.-             . X O .   O X o O o e ",
"9.9.9.9.9.8 @ + X X X X .         O     X +.z.1.1.1.1.*.1.v.1.*.#.#.#.&.&.&.*.v.b.b.b.B.g.9 O               O . .   O . X o O O ",
"9.9.9.@.R $ X X . . X X .       .       . X I k.h.k.k.*.*.*.v.*.*.&.&.&.&.&.*.v.b.N.N.+.4                   X O       O X o O . "
};
